<?xml version="1.0" encoding="utf-8"?>
<!-- Generator: Adobe Illustrator 16.0.0, SVG Export Plug-In . SVG Version: 6.00 Build 0)  -->
<!DOCTYPE svg PUBLIC "-//W3C//DTD SVG 1.1//EN" "http://www.w3.org/Graphics/SVG/1.1/DTD/svg11.dtd">
<svg version="1.1" id="Layer_1" xmlns="http://www.w3.org/2000/svg" xmlns:xlink="http://www.w3.org/1999/xlink" x="0px" y="0px"
	 width="187.455px" height="163.491px" viewBox="0 0 187.455 163.491" enable-background="new 0 0 187.455 163.491"
	 xml:space="preserve">
<g>
	<path fill-rule="evenodd" clip-rule="evenodd" d="M72.399,81.692c0,15.835-0.002,31.669,0.002,47.503
		c0,1.354-0.143,2.677-0.757,3.907c-0.77,1.541-2.098,2.199-3.725,1.636c-1.021-0.354-2.041-0.881-2.887-1.551
		c-8.478-6.703-16.922-13.446-25.353-20.209c-0.278-0.224-0.434-0.755-0.435-1.144c-0.024-8.521-0.019-17.044-0.019-25.565
		c0-11.547,0.005-23.094-0.013-34.641c-0.001-0.637,0.175-1.044,0.687-1.451c8.217-6.524,16.404-13.086,24.634-19.593
		c0.992-0.785,2.135-1.459,3.313-1.908c1.681-0.639,3.167,0.013,3.794,1.69c0.449,1.2,0.722,2.543,0.726,3.823
		C72.416,50.024,72.399,65.858,72.399,81.692z"/>
	<path fill-rule="evenodd" clip-rule="evenodd" d="M135.89,17.416c2.747-2.94,5.489-5.875,8.352-8.939
		c15.825,17.425,24.854,37.839,27.367,61.095c3.978,36.805-10.332,67.332-27.438,85.258c-2.76-2.952-5.518-5.901-8.282-8.858
		c16.57-18.248,24.815-39.76,24.815-64.274C160.706,57.204,152.479,35.712,135.89,17.416z"/>
	<path fill-rule="evenodd" clip-rule="evenodd" d="M119.153,127.955c-2.758-2.955-5.48-5.872-8.24-8.828
		c9.871-10.528,14.929-23.017,14.931-37.401c0.004-14.39-5.043-26.884-14.929-37.467c2.74-2.937,5.478-5.87,8.215-8.805
		C142.757,59.09,144.307,102.105,119.153,127.955z"/>
	<path fill-rule="evenodd" clip-rule="evenodd" d="M25.835,55.088c0,0.415,0,0.701,0,0.986c0,17.071,0,34.143,0,51.214
		c0,1.008-0.001,1.009-1.043,1.009c-2.551,0.001-5.103,0.001-7.654,0.001c-2.724-0.001-4.034-1.127-4.373-3.811
		c-0.105-0.832-0.16-1.676-0.161-2.515c-0.01-13.468-0.007-26.935-0.007-40.403c0-3.857,2.627-6.479,6.49-6.482
		c1.92-0.001,3.841,0,5.761,0C25.132,55.088,25.417,55.088,25.835,55.088z"/>
	<path fill-rule="evenodd" clip-rule="evenodd" d="M94.26,101.205c-2.875-3.101-5.64-6.081-8.437-9.098
		c3.325-2.704,5.215-6.103,5.215-10.414c-0.001-4.288-1.863-7.674-5.215-10.405c2.769-2.99,5.529-5.971,8.405-9.077
		c4.572,4.247,7.283,9.451,8.077,15.567C103.479,86.833,100.907,94.679,94.26,101.205z"/>
</g>
</svg>
