<?xml version="1.0" encoding="utf-8"?>
<!-- Generator: Adobe Illustrator 16.0.0, SVG Export Plug-In . SVG Version: 6.00 Build 0)  -->
<!DOCTYPE svg PUBLIC "-//W3C//DTD SVG 1.1//EN" "http://www.w3.org/Graphics/SVG/1.1/DTD/svg11.dtd">
<svg version="1.1" id="Layer_1" xmlns="http://www.w3.org/2000/svg" xmlns:xlink="http://www.w3.org/1999/xlink" x="0px" y="0px"
	 width="1280px" height="800px" viewBox="0 0 1280 800" enable-background="new 0 0 1280 800" xml:space="preserve">
<g>
	<path fill-rule="evenodd" clip-rule="evenodd" d="M481.874,483.348c-6.19,5.084-12.549,4.348-18.985,3.169
		c-0.655-0.119-1.613-0.136-2.031,0.243c-4.254,3.851-8.983,7.367-9.071,14.009c-0.069,5.194-0.479,10.384-0.701,15.577
		c-0.061,1.436-0.223,2.926,0.062,4.31c1.534,7.443,3.107,14.881,4.886,22.268c0.344,1.429,1.374,3.135,2.59,3.818
		c2.478,1.393,2.745,3.396,2.702,5.775c-0.096,5.347-1.454,7.035-6.818,7.328c-2.686,0.146-5.514-0.175-8.091-0.926
		c-1.631-0.475-3.934-1.94-4.186-3.289c-1.113-5.954-4.618-11.027-4.342-17.679c0.488-11.768-0.676-23.607-1.294-35.41
		c-0.251-4.795-1.39-9.598-1.126-14.342c0.132-2.392,2.492-4.66,4.075-7.378c-2.69-2.489-5.398-4.993-8.733-8.08
		c-1.334,3.905-2.443,7.31-3.66,10.676c-1.759,4.864-2.47,10.648-9.546,10.98c-0.614,0.029-1.427,0.931-1.736,1.613
		c-5.954,13.181-10.309,26.798-7.945,41.441c0.776,4.809,3.328,9.419,5.541,13.886c2.442,4.931,1.653,7.183-3.736,8.291
		c-5.025,1.033-9.267-0.456-12.082-4.732c-2.512-3.816-4.793-7.409-3.88-12.852c2.549-15.199,4.188-30.553,6.107-45.854
		c0.829-6.609,0.196-12.593-3.554-18.792c-2.739-4.528-2.659-10.841-3.496-16.407c-0.487-3.242-0.305-6.583-0.421-9.88
		c-0.036-1.008-0.188-2.029-0.077-3.021c0.951-8.518,2.186-17.013,2.856-25.552c0.475-6.048-1.033-12.508,0.578-18.146
		c2.137-7.482-0.343-16.824,7.902-22.25c1.317-0.868,2.201-2.701,2.806-4.273c1.068-2.775,2.586-4.752,5.707-5.24
		c0.803-0.126,1.915-0.582,2.218-1.208c1.797-3.713,6.013-4.738,8.336-7.28c5.176-5.663,11.727-6.443,18.287-7.514
		c9.495-1.552,18.998-1.345,28.587,0.21c6.506,1.056,13.244,0.662,19.876,0.967c4.051,0.186,7.849,1.2,12.212-0.048
		c3.216-0.92,7.371,1.444,11.578,2.458c3.046-3.618,1.676-8.382,1.576-12.822c-0.018-0.761-2.264-1.435-3.438-2.211
		c-4.396-2.902-8.866-5.707-13.097-8.834c-1.133-0.837-1.512-2.693-2.338-4.274c5.438-5.188,11.715-4.185,17.967-3.036
		c1.537,0.282,3.027,0.943,4.477,1.575c7.404,3.231,7.785,3.213,13.047-2.452c5.738-6.18,13.316-6.323,20.828-6.183
		c5.626,0.106,10.545,1.998,14.446,6.625c3.728,4.422,6.328,4.339,12.838-0.075c6.6-4.476,13.227-3.859,20.584-1.244
		c-3.771,12.928-13.323,17.009-25.636,17.571c0.217,0.953,0.141,1.836,0.539,2.199c8.278,7.542,8.153,17.28,6.896,27.146
		c-1.128,8.837-1.67,17.576,0.352,26.367c0.639,2.776,0.565,5.715,0.911,9.639c-5.864,4.076-1.559,10.743-1.662,16.809
		c-0.089,5.156-0.33,10.313-0.624,15.463c-0.072,1.251-0.924,2.482-0.895,3.711c0.239,10.094-5.445,16.558-12.645,22.671
		c-2.659,2.258-5.127,4.216-8.247,5.77c-1.886,0.939-2.758,3.725-4.432,5.316c-3.08,2.932-6.005,6.515-9.73,8.178
		c-7.842,3.5-9.131,4.899-10.02,13.315c-0.675,6.384-2.093,12.698-3.355,19.008c-1.928,9.632-2.315,19.229,0.747,28.671
		c0.774,2.388,2.356,4.578,3.858,6.647c2.38,3.277,2.813,6.605,0.77,10.093c-2,3.412-5.283,3.618-8.722,3.067
		c-6.251-1.002-8.874-4.963-9.853-11.201c-1.199-7.646,0.904-14.799,1.443-22.183c0.554-7.599-0.105-15.279,0.158-22.91
		c0.191-5.563,1.592-11.125,1.396-16.65c-0.179-5.077-1.444-10.201-2.884-15.114c-0.679-2.315-2.802-1.589-4.568-0.184
		c-5.474,4.349-7.548,9.563-5.151,16.431c1.086,3.109,1.908,6.411,2.166,9.679c0.256,3.229,0.646,7.059-0.763,9.693
		c-4.984,9.319-4.349,18.916-2.89,28.732c0.545,3.666,1.339,7.014,3.487,10.352c1.867,2.901,2.644,7.06,2.465,10.589
		c-0.259,5.124-5.985,7.463-10.4,4.862c-6.019-3.544-9.288-8.925-10.302-15.711c-0.179-1.195-0.111-2.915,0.604-3.669
		c2.926-3.083,2.77-6.771,2.758-10.542c-0.006-1.867,0.146-3.768,0.512-5.596c1.582-7.923,1.89-15.74-1.378-23.372
		c-0.337-0.787-0.721-1.694-0.64-2.5C495.567,498.288,485.058,492.924,481.874,483.348z"/>
	<path fill-rule="evenodd" clip-rule="evenodd" d="M655.495,441.253c1.119,5.846,3.91,7.873,8.67,8.513
		c3.461,0.466,7.057,1.681,10.054,3.466c5.196,3.096,10.681,4.084,16.546,4.19c4.032,0.073,8.155-0.011,12.07,0.791
		c11.708,2.396,18.995,11.645,20.322,24.788c0.638,6.31,1.288,12.657,2.609,18.845c0.853,3.99,3.051,7.676,4.418,11.578
		c0.891,2.542,2.02,5.248,1.928,7.843c-0.427,12.101-1.231,24.188-1.941,36.277c-0.058,0.99-0.351,1.985-0.647,2.942
		c-2.022,6.517-2.173,6.604-9.384,5.857c-1.765-4.941-0.083-9.722,0.625-14.665c0.825-5.75,1.296-11.733,0.59-17.451
		c-0.414-3.359-2.807-7.047-5.372-9.455c-6.065-5.695-10.998-11.548-9.111-20.761c-0.316-0.249-0.632-0.497-0.949-0.746
		c-1.733,1.1-3.409,2.307-5.212,3.28c-4.846,2.616-5.226,4.775-1.82,9.903c2.31,3.478,1.439,9.934,0.268,14.627
		c-1.3,5.202-0.344,9.457,1.405,14.13c2.361,6.312,4.269,12.803,6.171,19.275c0.332,1.131-0.007,3.465-0.574,3.658
		c-1.459,0.497-3.812,0.77-4.749-0.062c-2.522-2.239-4.646-4.992-6.619-7.761c-1.029-1.443-1.408-3.35-2.332-5.683
		c-1.14,3.379-1.757,6.2-3.049,8.668c-0.77,1.466-2.603,2.373-3.957,3.531c-0.809-1.424-2.358-2.885-2.288-4.264
		c0.22-4.257,0.539-8.639,1.769-12.684c2.096-6.895,3.533-13.446-1.696-19.604c-0.444-0.523-0.895-1.321-0.839-1.948
		c0.763-8.716-7.705-12.256-10.691-18.923c-1.198-2.673-8.306-0.738-9.462,2.34c-3.588,9.554-3.348,19.528-3.228,29.5
		c0.102,8.505,0.556,17.086-2.746,25.193c-0.64,1.572-1.884,3.593-3.285,4.038c-5.725,1.816-8.49-0.574-6.434-6.146
		c3.883-10.521,2.662-20.975,1.446-31.626c-0.483-4.24,0.525-8.632,0.283-12.922c-0.484-8.577-2.053-17.104-8.271-23.466
		c-4.933-5.048-5.861-10.501-4.838-17.012c0.532-3.384,0.666-6.937,0.278-10.332c-0.589-5.152-3.707-6.823-8.273-5.276
		c-3.284,1.112-6.822,3.66-10.075,0.359c-3.683-3.736-2.856-8.569-2.067-13.113c0.878-5.053,2.179-10.032,3.228-15.058
		c0.44-2.116,0.234-4.503,1.153-6.354c1.619-3.266,1.144-6.198,0.378-9.526c-0.438-1.909,0.74-4.191,1.19-6.306
		c1.926,0.892,4.411,1.306,5.659,2.774c2.501,2.939,5.123,4.305,9.083,4.802c3.771,0.474,7.314,2.854,10.92,4.479
		c0.757,0.342,1.299,1.406,2.032,1.516c7.535,1.121,15.106,2.01,22.629,3.209c2.04,0.326,3.948,1.48,5.917,2.255
		c-1.125,1.798-1.854,4.501-3.459,5.203c-3.196,1.397-6.856,1.793-10.358,2.415C660.888,440.805,658.312,440.945,655.495,441.253z"
		/>
</g>
<path display="none" fill-rule="evenodd" clip-rule="evenodd" d="M50.621,510.765c-0.549,0.404-0.88,0.648-1.242,0.915
	c-0.185-0.175-0.38-0.269-0.403-0.394c-0.379-2.076-0.638-4.18-1.127-6.229c-0.517-2.167-1.26-4.279-1.885-6.421
	c-0.875-2.995-1.757-5.988-2.57-9c-0.127-0.471,0.097-1.036,0.211-2.003c-2.139,1.256-4.027,2.203-5.696,3.446
	c-0.489,0.363-0.57,1.596-0.466,2.38c0.62,4.706,1.285,9.408,2.074,14.088c0.307,1.824,0.89,3.618,1.497,5.374
	c1.069,3.098,2.24,6.161,3.401,9.226c0.178,0.471,0.573,0.854,0.804,1.312c1.499,2.974,2.94,5.977,4.487,8.925
	c0.678,1.293,1.467,2.552,2.37,3.697c1.686,2.14,3.25,4.483,5.331,6.167c1.426,1.153,1.391,2.858,2.636,4.037
	c1.902,1.8,3.361,4.067,5.063,6.205c-1.312,2.22-3.55,0.449-5.029,1.161c0.366,1.176,0.711,2.289,1.181,3.801
	c-1.696,0.127-3.152,0.448-4.554,0.291c-2.32-0.26-4.6-0.865-6.908-1.257c-2.21-0.374-3.232-2.027-4.3-3.711
	c-0.432-0.682-0.999-1.596-1.66-1.753c-1.892-0.449-2.606-1.63-2.979-3.371c-0.965-4.513-1.833-9.053-5.064-12.71
	c-0.851-0.964-1.178-2.391-1.746-3.605c-0.129,0.136-0.258,0.272-0.387,0.409c-0.39-0.199-1.035-0.319-1.127-0.611
	c-0.56-1.786-0.967-3.618-1.491-5.416c-0.101-0.347-0.064-1.215-0.955-0.693c-0.04,0.023-0.666-0.644-0.739-1.04
	c-0.528-2.868-1.117-5.701-2.48-8.328c-0.671-1.293-1.391-2.638-1.665-4.041c-0.372-1.902-1.512-3.326-2.535-4.782
	c-2.343-3.334-2.946-4.871-2.915-8.912c-0.41-0.14-1.034-0.174-1.121-0.407c-0.89-2.393-2.341-4.463-2.809-7.168
	c-0.444-2.569,0.114-4.512,0.755-6.828c0.732-2.646-0.432-5.382-1.008-8.084c-0.402-1.889-2.455-2.381-2.507-4.174
	c-1.003,0.846-1.408,0.374-1.218-0.64c0.366-1.955,0.909-3.875,1.345-5.817c0.274-1.219,0.591-2.442,0.706-3.681
	c0.198-2.137,0.46-4.301,0.303-6.426c-0.117-1.594-0.904-3.131-1.283-4.72c-0.175-0.733-0.22-1.554-0.095-2.296
	c0.531-3.15,1.276-6.271,1.694-9.435c0.327-2.476,0.302-4.999,0.376-7.503c0.004-0.14-0.497-0.396-0.781-0.426
	c-1.267-0.131-1.952-0.766-2.723-1.86c-1.556-2.208-2.006-5.23-4.708-6.63c-0.241-0.124-0.341-0.557-0.467-0.863
	c-2.037-4.933-3.05-10.039-2.843-15.402c0.041-1.059-0.508-2.156-0.879-3.203c-0.078-0.22-0.57-0.293-1.141-0.56
	c-0.222-2.277-0.635-4.904-0.688-7.539c-0.052-2.609,0.259-5.227,0.432-8.188c-0.601-0.376-0.65-1.077,0.002-2.332
	c1.422-2.738,2.365-5.724,3.78-8.466c0.783-1.516,2.075-2.786,3.224-4.091c1.536-1.745,3.071-3.505,4.76-5.096
	c2.355-2.219,4.196-5.072,7.408-6.276c0.854-0.32,1.738-0.574,2.625-0.796c0.874-0.219,1.399-0.577,1.919-1.47
	c0.441-0.756,1.816-1.053,2.835-1.361c0.903-0.273,1.918-0.178,2.82-0.455c0.398-0.123,0.636-0.763,0.947-1.168
	c-0.11-0.172-0.221-0.344-0.331-0.516c3.585-0.753,7.171-1.507,11.279-2.37c-0.828-0.285-1.234-0.425-1.729-0.596
	c0.214-0.18,0.389-0.444,0.611-0.494c3.726-0.842,7.467-1.618,11.184-2.493c3.088-0.727,6.15-1.567,9.227-2.347
	c0.278-0.07,0.575-0.08,0.864-0.089c3.981-0.121,7.999,0.058,11.937-0.421c6.398-0.777,12.448,1.21,18.669,1.749
	c2.562,0.222,5.173-0.126,7.763-0.196c1.844-0.049,3.69-0.036,5.533-0.112c1.007-0.042,2.008-0.212,3.217-0.347
	c-0.377-0.531-0.596-0.841-0.979-1.381c1.954,0.366,3.619,0.679,5.439,1.02c-0.132-0.607-0.224-1.029-0.342-1.577
	c0.189,0.083,0.316,0.126,0.431,0.19c3.382,1.887,6.998,2.338,10.843,2.188c4.667-0.182,9.341,0.028,13.969,0.93
	c1.494,0.291,3.393,0.598,4.585-0.054c3.207-1.754,6.111,0.161,9.127,0.241c2.717,0.072,5.404,0.993,8.128,1.174
	c2.394,0.159,4.821-0.229,7.235-0.291c1.034-0.027,2.073,0.198,3.112,0.234c0.445,0.016,0.897-0.155,1.346-0.244
	c0.411-0.081,0.854-0.309,1.228-0.226c4.505,0.996,8.987,2.098,13.508,3.01c0.734,0.148,1.618-0.522,2.45-0.749
	c0.411-0.111,0.867-0.136,1.293-0.094c2.855,0.28,5.719,0.897,8.557,0.789c2.208-0.084,4.444-0.899,6.539-1.72
	c0.877-0.344,2.377-1.054,1.17-2.793c-0.331-0.476,0.238-1.627,0.482-2.441c0.664-2.214,1.366-4.417,2.073-6.619
	c0.184-0.573,0.438-1.124,0.756-1.931c-0.492,0.233-0.799,0.379-1.452,0.688c1.054-3.223,3.555-5.487,4.002-8.91
	c-0.752,0.652-1.336,1.157-2.279,1.973c1.559-4.191,2.963-7.964,4.367-11.737c-0.211-0.106-0.422-0.211-0.633-0.316
	c-0.718,0.911-1.437,1.821-2.318,2.938c-0.083-0.446-0.243-0.742-0.157-0.919c1.955-4.032,1.698-8.445,2.278-12.719
	c0.291-2.143,0.943-4.24,1.482-6.345c0.504-1.966,1.076-3.916,1.601-5.81c-0.559,0.462-1.218,1.007-1.876,1.552
	c-0.129-0.115-0.258-0.23-0.387-0.346c1.557-2.262,3.478-4.363,4.569-6.831c1.15-2.6,3.488-4.615,3.602-7.781
	c0.042-1.143,1.192-2.25,1.846-3.367c0.295-0.505,0.613-0.998,0.92-1.497c-0.196-0.16-0.391-0.32-0.587-0.479
	c-0.394,0.566-0.788,1.132-1.284,1.845c-0.442-2.678,1.695-3.986,2.743-6.236c-0.645,0.37-0.905,0.519-1.165,0.668
	c-0.078-0.116-0.155-0.231-0.232-0.348c1.224-0.899,2.471-1.769,3.662-2.709c0.681-0.537,1.247-1.216,1.914-1.773
	c0.344-0.287,0.793-0.449,1.197-0.665c0.225-0.12,0.591-0.185,0.656-0.362c0.353-0.966,0.632-1.96,0.875-2.747
	c1.505-0.85,2.937-1.706,4.412-2.482c1.636-0.861,3.295-1.679,4.971-2.46c1.849-0.861,3.814-1.509,5.566-2.529
	c1.639-0.955,3.273-2.092,4.512-3.5c0.825-0.936,0.997-2.472,1.377-3.765c0.331-1.125,0.341-2.293,1.749-2.897
	c0.681-0.292,0.991-1.373,1.554-2.024c1.479-1.715,2.87-3.542,4.553-5.033c1.367-1.212,2.054-2.796,3.102-4.17
	c0.125-0.164,0.558-0.092,0.847-0.129c-0.193-1.087-0.158-0.979,1.034-1.369c0.418-0.137,0.615-0.948,0.996-1.592
	c0.075,0.053,0.311,0.219,0.721,0.507c0.11-0.552,0.194-0.973,0.311-1.558c0.307,0.231,0.537,0.405,0.842,0.634
	c0.274-0.38,0.568-0.786,1.025-1.418c-0.028,0.549-0.042,0.837-0.065,1.287c0.46-0.213,0.847-0.392,1.233-0.57
	c0.16,0.074,0.321,0.147,0.481,0.221c-0.601,1.399-0.979,2.961-1.852,4.162c-1.454,1.999-2.501,4.003-2.695,6.545
	c-0.175,2.305-0.812,4.574-1.063,6.947c1.416-1.698,3.14-3.053,3.762-5.388c0.5-1.88,1.523-3.637,2.425-5.391
	c0.845-1.642,1.879-3.187,2.741-4.821c0.367-0.698,2.165-0.041,1.524-1.703c0.271,0.167,0.542,0.333,0.552,0.338
	c0.824-0.543,1.529-1.009,2.234-1.474c0.173,0.077,0.347,0.155,0.52,0.232c-0.365,1.411-1.417,3.149-0.938,4.158
	c0.766,1.61,0.318,2.892,0.136,4.328c-0.024,0.191-0.05,0.442-0.174,0.553c-3.075,2.741-3.178,6.589-3.846,10.23
	c-0.06,0.327-0.151,0.676-0.328,0.95c-1.02,1.576-0.389,3.229,1.439,3.69c3.998,1.01,7.727,2.533,10.974,5.187
	c1.012,0.828,2.343,1.359,3.612,1.762c2.924,0.927,5.904,1.68,8.852,2.534c0.467,0.135,1.178,0.337,1.283,0.666
	c0.64,1.997,2.267,2.028,3.923,2.342c3.263,0.621,9.151,5.02,8.482,9.495c-0.211,1.415,0.255,2.958,0.55,4.415
	c0.439,2.166-0.595,3.771-2.668,3.906c-0.036,0.693,0.027,1.413-0.13,2.08c-0.264,1.117-1.219,1.222-2.187,1.344
	c-0.827,0.104-1.625,0.422-2.447,0.587c-1.688,0.34-3.253,0.183-4.66-0.996c-0.473-0.396-1.203-0.482-1.956-0.762
	c-0.033-0.118-0.075-0.794-0.253-0.832c-1.753-0.373-3.368-1.55-5.102-1.441c-0.848,0.053-1.587-0.272-2.38-0.162
	c-0.172,0.024-0.418-0.062-0.514,0.028c-1.181,1.102-2.585,1.292-4.093,1.022c-0.388-0.069-0.713,1.376-1.117,0.037
	c-0.254,0.385-0.509,0.771-0.765,1.155c-0.265,0.399-0.529,0.799-0.794,1.199c-0.167-0.082-0.333-0.163-0.5-0.245
	c-0.064,0.48-0.13,0.962-0.188,1.399c-0.43-0.712-0.86-1.426-1.291-2.14c-0.458,0.41-0.915,0.82-1.399,1.257
	c-0.153-0.128-0.562-1.668-0.824,0.392c-0.308-0.443-0.525-0.757-0.904-1.303c-0.268,0.646-0.404,0.974-0.599,1.442
	c-0.218-0.269-0.391-0.483-0.564-0.697c-0.296,0.502-0.593,1.004-0.88,1.492c-0.804-1.21-1.148-0.21-1.409,0.205
	c-0.989-0.479-1.978-0.957-3.104-1.501c-0.13,0.999-0.221,1.696-0.276,2.117c-1.604-0.143-2.984-0.266-4.312-0.384
	c-1.232,2.393-0.601,4.46,0.039,6.396c-0.251,1.021-0.642,2.031-0.716,3.064c-0.083,1.15,0.124,2.321,0.179,3.117
	c1.017,1.539,2.056,2.808,2.758,4.242c1.113,2.276,2.01,4.658,2.974,7.005c0.164,0.4,0.206,0.85,0.385,1.622
	c-0.742-0.514-1.175-0.813-1.607-1.114c-0.093,0.046-0.186,0.091-0.279,0.137c0.413,0.781,0.825,1.562,1.299,2.457
	c-0.308,0-0.578,0-0.914,0c0.128,1.439,0.257,2.888,0.386,4.333c-2.039,0.243-2.493,3.422-1.31,8.481
	c0.05-0.017,0.127-0.019,0.146-0.053c0.068-0.127,0.117-0.265,0.002,0.009c0.585,3.893,1.223,8.132,1.855,12.333
	c-0.073-0.028-0.354-0.139-1.079-0.422c0.768,4.4,1.489,8.531,2.21,12.662c-0.051,0.049-0.102,0.099-0.153,0.149
	c-0.415-0.718-0.83-1.436-1.245-2.154c-0.102,0.011-0.204,0.021-0.306,0.032c0.324,3.406,0.647,6.813,0.976,10.276
	c-0.293-0.219-0.604-0.451-0.915-0.684c-0.14,0.084-0.279,0.169-0.419,0.254c0.658,1.353,1.316,2.706,1.814,3.729
	c0.158,0.966,0.27,1.648,0.405,2.47c-0.335,0.093-0.743,0.206-1.688,0.467c1.585,0.758,2.811,1.344,4.291,2.051
	c-1.333,0.302-2.441,0.553-3.641,0.825c0.697,0.415,1.34,0.798,2.105,1.254c-0.824,0.487-1.56,0.922-2.502,1.48
	c0.482,0.617,0.968,1.239,1.506,1.927c-1.038,0.26-2.04,0.511-3.375,0.846c0.684,1.886,1.282,3.532,1.948,5.369
	c-0.977-0.684-1.796-1.258-2.99-2.094c0.863,1.88,1.637,3.567,2.467,5.375c-0.623,0.146-1.052,0.246-1.375,0.321
	c0.512,1.668,1.016,3.31,1.654,5.391c-1.066-0.585-1.801-0.989-2.518-1.382c-0.169,2.083,0.921,3.739,2.879,5.175
	c-0.89-0.256-1.78-0.513-3.08-0.887c-0.33,1.503-0.674,3.067-1.02,4.636c-0.044-0.037-0.366-0.302-0.961-0.792
	c0,2.068,0,3.897,0,5.597c-0.387,0.068-0.875,0.01-1.015,0.202c-1.583,2.173-3.113,4.386-4.661,6.593
	c0.426,0.201,0.844,0.398,1.262,0.596c-0.03,0.104-0.061,0.209-0.092,0.312c-0.736,0-1.473,0-2.272,0
	c-0.399,1.827-0.809,3.703-1.322,6.053c-0.493-0.963-0.815-1.594-1.181-2.309c-0.655,1.921-1.015,3.734,0.495,5.498
	c-0.503-0.239-1.007-0.478-1.657-0.785c0.081,0.42,0.143,0.727,0.198,1.034c0.06,0.333,0.114,0.667,0.178,1.048
	c-0.72-0.077-1.369-0.147-1.888-0.203c0.19,0.871,0.392,1.792,0.547,2.504c-1.218-0.641-2.413-1.27-3.977-2.093
	c0,1.797,0,3.023,0,4.762c-0.623-0.878-0.957-1.351-1.366-1.929c-1.868,0.586-1.513,2.53-2.522,4.031c0-0.861,0-1.441,0-2.474
	c-1.603,1.282-2.947,2.358-4.522,3.617c0.197-0.767,0.304-1.181,0.41-1.593c-0.107-0.1-0.214-0.199-0.321-0.299
	c-0.625,0.657-1.428,1.223-1.829,1.996c-0.44,0.848-0.511,1.887-0.847,3.275c-0.585-0.715-0.893-1.09-1.37-1.674
	c-0.998,1.649-2.086,3.449-3.435,5.678c0.175-1.962,1.505-3.488,0.023-4.928c-1.135,2.211-2.27,4.421-3.405,6.631
	c-0.112-0.033-0.224-0.066-0.335-0.099c0-1.415,0-2.829,0-4.577c-2.371,2.59-4.436,4.846-6.5,7.102
	c-0.081-0.045-0.161-0.091-0.242-0.137c0.237-0.648,0.473-1.299,0.71-1.947c-0.133-0.113-0.266-0.227-0.399-0.34
	c-1.832,1.807-3.664,3.613-5.678,5.599c0.427-1.105,0.794-2.057,1.315-3.405c-1.403,0.977-2.84,1.541-3.551,2.594
	c-0.737,1.094-0.771,2.662-1.164,4.23c-0.169-0.5-0.31-0.916-0.527-1.559c-0.622,1.137-1.177,2.152-1.923,3.516
	c0-0.884,0-1.39,0-1.998c-1.566,0.932-1.457,2.36-1.302,3.709c0.207,1.806,0.617,3.588,0.832,5.393
	c0.03,0.256-0.549,0.582-1.139,1.166c-0.103,1.141-0.259,2.869-0.414,4.59c-0.819-0.371-1.262-0.572-1.705-0.773
	c0.025,0.441,0.169,0.921,0.045,1.314c-0.157,0.496-0.653,0.885-0.796,1.381c-0.99,3.412-1.876,6.857-2.918,10.254
	c-0.218,0.709-0.947,1.262-1.589,2.074c0.03-0.671,0.05-1.129,0.07-1.587c-0.062-0.017-0.125-0.034-0.188-0.051
	c-0.518,1.223-1.053,2.438-1.547,3.669c-0.606,1.512-1.208,3.027-1.75,4.562c-0.244,0.693-0.354,1.436-0.494,2.161
	c-0.125,0.648,0.124,1.444-1.072,1.456c-0.233,0.002-0.6,1.343-0.656,2.084c-0.396,5.222-0.487,10.479-1.154,15.664
	c-0.537,4.171-0.545,8.299-0.229,12.44c0.173,2.264,0.736,4.503,1.184,6.74c0.28,1.401,0.536,2.832,1.044,4.156
	c1.045,2.726,2.455,5.272,5.058,6.831c2.079,1.245,2.56,3.033,2.127,4.94c1.771,1.402,3.371,2.665,4.966,3.935
	c0.628,0.501,1.343,0.938,1.838,1.549c0.374,0.461,0.61,1.157,0.602,1.744c-0.003,0.231-0.818,0.576-1.297,0.649
	c-1.05,0.163-2.122,0.185-3.356,0.277c1.464,0.549-0.093,3.23,2.601,2.914c-0.328,0.678-0.563,1.166-0.751,1.557
	c-5.055-0.004-10.165,1.906-14.713-1.493c0.433-2.107,0.347-2.239-1.186-1.9c-0.533-0.952-1.047-1.899-1.588-2.831
	c-1.041-1.793-2.309-3.435-2.238-5.734c0.047-1.515-0.935-2.799-1.61-4.166c-1.356-2.747-2.447-5.653-3.336-8.587
	c-0.372-1.229,0.016-2.699,0.125-4.054c0.064-0.785,0.994-1.622-0.287-2.29c-0.181-0.094-0.092-0.771-0.072-1.176
	c0.225-4.444,0.576-8.888,0.627-13.333c0.017-1.441-0.81-2.877-1.124-4.343c-0.19-0.888-0.308-1.859-0.152-2.739
	c0.274-1.545,0.618-2.98-0.277-4.501c-0.295-0.502,0.186-1.421,0.196-2.15c0.034-2.386,0.045-4.772-0.02-7.157
	c-0.009-0.329-0.492-0.646-0.981-0.795c-0.389-2.48-1.664-4.416-4.104-5.968c-0.539,1.142-1.029,2.139-1.481,3.152
	c-0.646,1.447-1.803,2.689-2.372,4.032c-0.953,2.249-1.303,4.84-1.474,7.316c-0.319,4.631-0.311,9.284-0.476,13.927
	c-0.056,1.576-0.221,3.147-0.339,4.76c-0.708,0.114-1.508,0.092-1.132,1.509c0.261,0.983-0.22,2.14-0.186,3.213
	c0.184,5.733,0.405,11.466,0.659,17.196c0.082,1.847-0.005,3.785,0.543,5.504c0.555,1.741,1.8,3.263,2.91,5.167
	c0.407-0.62,0.728-1.108,1.027-1.563c0.373,0.743,0.675,1.703,1.259,2.439c1.491,1.881,3.158,3.623,4.639,5.512
	c0.377,0.481,0.552,1.367,0.382,1.937c-0.097,0.323-1.081,0.517-1.668,0.523c-0.924,0.011-1.851-0.186-3.068-0.328
	c0.391,1.23,0.754,2.374,1.154,3.633c-1.791,1.695-4.258,0.021-6.25,0.788c-0.052-0.395-0.068-0.916-0.218-1.395
	c-0.042-0.135-0.632-0.281-0.704-0.197c-1.252,1.485-2.569,0.491-3.853,0.126c-1.537-0.438-3.096-0.832-4.58-1.413
	c-1.715-0.672-2.791-2.184-2.671-3.892c0.179-2.55-0.58-4.786-1.678-6.891c-1.385-2.655-0.493-5.293-0.414-7.942
	c0.12-4.031,0.297-8.06,0.419-12.09c0.023-0.751-0.078-1.508-0.153-2.259c-0.149-1.497-0.458-2.992-0.445-4.486
	c0.015-1.659,0.332-3.314,0.469-4.975c0.014-0.171-0.301-0.37-0.574-0.684c0.052-0.888,0.399-2.149,0.14-3.271
	c-0.718-3.1-0.118-6.14,0.037-9.205c0.026-0.516-0.121-1.041-0.536-1.559c-0.093,0.332-0.187,0.664-0.382,1.354
	c-0.588-1.646-1.058-2.962-1.636-4.583c-0.505,1.045-0.863,1.786-1.221,2.528c-0.101-0.004-0.201-0.009-0.302-0.013
	c-0.071-0.96-0.143-1.918-0.252-3.39c-0.607,1.363-1.012,2.271-1.417,3.18c-0.136-0.057-0.273-0.113-0.409-0.171
	c-0.178-2.487-0.355-4.974-0.549-7.686c-0.578,0.803-1.018,1.414-1.59,2.209c-0.111-2.124-0.209-3.999-0.318-6.077
	c-0.35,0.215-0.605,0.373-0.906,0.557c-0.221-0.422-0.441-0.842-0.702-1.341c-0.36,0.747-0.666,1.382-1.104,2.29
	c-0.654-1.376-1.173-2.47-1.689-3.555c-0.291,0.424-0.561,0.818-0.832,1.212c-0.272-0.452-0.774-0.902-0.777-1.355
	c-0.013-2.147,0.023-4.304,0.215-6.44c0.136-1.519,0.545-3.013,0.555-4.665c-0.693,0.942-1.386,1.885-2.079,2.827
	c-0.218-0.094-0.436-0.188-0.654-0.28c0.374-1.882,0.748-3.763,1.119-5.63c-0.175-0.508-0.468-1.098-0.57-1.719
	c-0.104-0.64-0.023-1.308-0.023-1.964c-0.202,0.021-0.403,0.04-0.604,0.061c0.043,0.339,0.087,0.679,0.136,1.062
	c-1.543,1.22-3.092,0.538-4.644-0.118c-0.257-0.108-0.548-0.318-0.784-0.273c-3.652,0.688-3.649,0.691-7.778-0.902
	c-0.246-0.096-0.533-0.08-0.95-0.138c-0.072,0.419-0.144,0.839-0.287,1.674c-4.068-2.583-8.32-4.042-13.081-4.153
	c0.222,0.774,0.417,1.453,0.611,2.133c-0.116,0.125-0.233,0.251-0.35,0.377c-4.106-3.91-9.192-3.007-14.198-3.178
	c0.182,0.285,0.349,0.494,0.453,0.729c0.088,0.201,0.102,0.435,0.227,1.021c-6.994-4.204-15.129-3.817-22.634-7.354
	c0.6,0.857,0.888,1.27,1.177,1.682c-0.037,0.164-0.073,0.329-0.109,0.493c-0.56-0.119-1.174-0.129-1.669-0.378
	c-1.698-0.852-3.31-1.883-5.037-2.663c-1.722-0.778-3.49,0.394-3.671,2.286c-0.058,0.603-0.065,1.211-0.096,1.816
	c-0.163,0.075-0.326,0.15-0.489,0.225c-0.175-0.334-0.35-0.668-0.441-0.843c-0.7,2.257-1.41,4.544-2.12,6.832
	c-0.152-0.014-0.303-0.027-0.455-0.041c-0.125-0.274-0.25-0.548-0.54-1.183c-2.568,2.316-5.296,4.378-7.476,6.911
	c-1.083,1.257-1.218,3.365-1.674,5.116c-0.617,2.374-1.132,4.773-1.687,7.163c-0.039,0.166-0.08,0.345-0.058,0.51
	c0.609,4.756,1.242,9.509,1.829,14.267c0.155,1.258,0.108,2.54,0.261,3.798c0.27,2.209,0.632,4.406,0.938,6.61
	c0.36,2.597,0.704,5.197,1.05,7.797c0.049,0.369-0.016,0.778,0.119,1.108c1.505,3.689,2.907,7.431,4.627,11.018
	c0.728,1.517,2.12,2.723,3.251,4.035c1.275,1.479,2.637,2.885,3.889,4.383c1.22,1.46,2.352,2.993,3.515,4.5
	c1.111,1.439,2.21,2.889,3.32,4.329c0.234,0.303,0.449,0.645,0.747,0.871c1.238,0.949,1.745,1.978,0.538,3.184
	c-1.494-0.115-2.947-0.227-4.635-0.356c0.323,0.505,0.807,1.045,1.038,1.678c0.28,0.765,0.535,1.635,0.418,2.401
	c-0.051,0.333-1.047,0.719-1.627,0.743c-3.558,0.144-7.103-0.15-10.438-1.431c-1.596-0.612-2.642-2.007-3.295-3.701
	c-0.625-1.623-1.475-3.169-2.318-4.697c-0.904-1.639-2.144-3.127-2.834-4.844c-1.68-4.179-3.124-8.452-4.667-12.686
	c-1.12-3.07-2.349-6.105-3.339-9.216C51.764,515.95,51.274,513.406,50.621,510.765z"/>
<path fill-rule="evenodd" clip-rule="evenodd" d="M357.143,336.727c-0.498,0.076-0.893,0.021-1.122,0.19
	c-1.214,0.89-2.458,1.542-4.053,1.494c-0.258-0.008-0.782,1.068-0.787,1.647c-0.025,3.03,0.173,6.065,0.108,9.094
	c-0.067,3.107-0.461,6.209-0.512,9.316c-0.124,7.489-0.087,14.981-0.204,22.47c-0.053,3.407,1.255,6.362,2.454,9.441
	c0.994,2.551,1.568,5.327,1.898,8.056s0.072,5.522,0.166,8.285c0.208,6.127,0.762,12.257,0.617,18.374
	c-0.096,4.09-1.044,8.18-1.821,12.229c-0.379,1.975-1.344,3.828-1.857,5.784c-0.796,3.03-1.234,6.165-2.179,9.143
	c-1.63,5.138-3.893,9.987-6.754,14.609c-2.673,4.319-4.74,9.008-7.26,13.429c-0.928,1.629-2.384,2.955-3.6,4.418
	c-0.971,1.17-1.919,2.359-2.927,3.497c-0.313,0.354-0.87,0.499-1.173,0.859c-1.644,1.958-3.242,3.955-4.86,5.935
	c-0.165,0.203-0.364,0.377-0.54,0.572c-0.977,1.079-1.627,2.176-1.606,3.802c0.048,4.005-0.158,8.015-0.321,12.021
	c-0.037,0.905-0.315,1.8-0.502,2.806c1.072,0.187,1.251,0.608,1.019,1.864c-0.535,2.896-0.428,5.907-0.892,8.821
	c-0.587,3.69-0.311,7.561-2.063,11.022c-0.63,1.244-1.726,2.343-2.021,3.642c-0.34,1.497-0.019,3.143-0.006,4.724
	c0.015,1.768-0.059,3.539,0.022,5.303c0.094,2.063-0.068,4.251,0.58,6.146c0.755,2.209,2.509,3.896,4.447,5.373
	c0.991,0.756,1.707,2.091,2.096,3.308c0.144,0.45-0.902,1.731-1.592,1.908c-1.961,0.504-4.015,0.824-6.039,0.864
	c-2.694,0.053-5.473,0.108-8.064-0.486c-1.668-0.383-4.142-0.178-4.788-2.481c-0.329-1.172,0.038-2.535,0.071-3.812
	c0.085-3.285,0.427-6.595,0.121-9.844c-0.146-1.539-1.46-3.011-2.381-4.423c-2.137-3.277-2.974-6.846-2.696-10.904
	c0.366,0.397,0.629,0.682,0.906,0.982c-0.689-3.743-1.126-7.497-2.104-11.104c-1.467-5.402-3.463-10.66-4.944-16.059
	c-0.833-3.039-1.029-6.247-1.62-9.358c-0.456-2.402-1.244-4.75-1.58-7.164c-0.27-1.944-0.658-3.628-1.979-5.238
	c-0.778-0.951-0.933-0.831-1.684-0.239c-1.892,1.491-4.283,1.592-6.503,2.001c-2.968,0.548-5.996,0.791-9.009,1.055
	c-0.998,0.087-2.027-0.168-3.156-0.277c-0.146,0.511-0.273,0.959-0.524,1.843c-0.277-0.825-0.421-1.252-0.673-2.005
	c-0.335,0.514-0.558,0.854-0.796,1.223c-0.906-1.95-1.348-0.979-1.93,0.321c0.035-0.365,0.07-0.73,0.113-1.174
	c-1.648-0.188-3.307-0.376-5.036-0.572c-0.009,0.171-0.03,0.555-0.052,0.938c-0.367-2.256-2.324-1.001-3.399-1.46
	c-2.326-0.993-4.881-1.459-7.357-2.081c-0.2-0.049-0.516,0.364-0.589,0.42c-0.423-0.235-0.884-0.491-1.345-0.746
	c-0.021,0.03-0.042,0.06-0.064,0.09c-0.945-0.526-1.89-1.054-2.87-1.6c-0.166,0.402-0.284,0.693-0.436,1.062
	c-0.257-0.556-0.479-1.034-0.699-1.513c-0.128,0.043-0.256,0.086-0.384,0.129c0,0.312,0,0.625,0,0.514
	c-1.203-0.825-2.463-1.793-3.823-2.592c-1.213-0.713-2.513-1.299-3.828-1.803c-0.308-0.119-1.125,0.232-1.204,0.51
	c-0.871,3.053-1.587,6.147-2.454,9.2c-0.745,2.624-1.469,5.274-2.495,7.794c-1.359,3.338-2.952,6.585-4.55,9.818
	c-0.683,1.383-1.7,2.597-2.439,3.955c-0.968,1.78-1.812,3.628-2.612,5.25c-0.06-0.153-0.243-0.623-0.473-1.213
	c-1.059,2.05-2,3.87-2.94,5.691c-0.103-0.044-0.206-0.087-0.309-0.131c-0.017-0.316-0.033-0.633-0.049-0.949
	c-0.176-0.029-0.352-0.058-0.527-0.086c-0.482,2.102-0.839,4.243-1.48,6.295c-0.655,2.096-1.401,4.208-2.453,6.122
	c-1.15,2.094-2.932,3.853-3.98,5.981c-0.624,1.269-0.43,2.967-0.492,4.476c-0.081,1.933-0.017,3.87-0.074,5.804
	c-0.08,2.696-0.395,5.401-0.255,8.084c0.077,1.478,0.67,2.885,2.625,3.4c1.317,0.347,2.395,1.576,3.599,2.381
	c1.518,1.015,3.161,1.875,4.542,3.047c0.687,0.583,1.364,1.785,1.237,2.579c-0.194,1.219-0.919,2.378-2.66,2.332
	c-2.26-0.06-4.546,0.368-6.786,0.177c-2.958-0.252-5.984-0.594-8.771-1.526c-1.157-0.387-2.093-2.29-2.571-3.693
	c-1.436-4.218-2.498-8.562-3.892-12.796c-1.236-3.755-2.918-7.299-4.996-10.716c-1.189-1.956-1.692-4.498-1.919-6.833
	c-0.386-3.968-0.318-7.98-0.427-11.975c-0.076-2.781,0.197-5.482,1.546-8.013c0.384-0.72,0.474-1.643,0.528-2.482
	c0.299-4.641-0.262-9.195-1.327-13.717c-0.43-1.824-0.388-3.757-0.787-5.592c-0.213-0.978-0.897-1.858-1.401-2.764
	c-0.098-0.175-0.502-0.257-0.51-0.395c-0.128-2.461-2.403-3.838-3.04-6.091c-0.301-1.062-1.323-1.994-2.181-2.816
	c-3.651-3.504-7.517-6.846-10.078-11.275c-2.042-3.535-3.555-7.303-4.511-11.342c-1.253-5.292-1.414-10.616-1.345-15.985
	c0.048-3.715,1.03-7.145,3.306-10.14c1.771-2.33,3.6-4.619,5.309-6.994c0.67-0.932,0.936-2.164,1.642-3.059
	c2.162-2.736,4.235-5.602,6.76-7.974c1.719-1.617,4.146-2.471,6.236-3.702c1.763-1.039,3.554-2.047,5.23-3.215
	c3.071-2.143,6.692-2.99,10.042-4.473c4.986-2.205,10.297-2.881,15.63-3.53c4.196-0.511,8.365-1.35,12.573-1.608
	c3.76-0.231,7.558,0.111,11.337,0.24c2.072,0.07,4.142,0.229,6.213,0.341c6.369,0.348,12.742,1.003,19.108,0.952
	c6.346-0.051,12.088,2.153,18.021,3.734c2.715,0.724,5.419,1.49,8.148,2.147c1.631,0.393,3.292,0.73,4.958,0.884
	c3.051,0.281,5.756-1.688,6.956-4.324c1.95-4.283,2.803-8.759,2.731-13.393c-0.07-4.638-0.388-9.273-0.66-13.906
	c-0.177-3.001-0.455-5.998-0.711-8.994c-0.451-5.305-0.937-10.607-1.376-15.913c-0.271-3.267-0.714-6.542-0.672-9.808
	c0.088-6.687,0.139-13.403,0.838-20.04c0.328-3.123,0.687-6.581,3.32-9.124c2.143-2.07,3.732-4.816,6.102-6.52
	c2.081-1.498,3.465-3.424,5.142-5.19c1.532-1.614,3.287-3.023,4.99-4.468c0.887-0.753,1.835-1.455,2.834-2.05
	c0.541-0.322,1.45-0.701,1.829-0.466c0.65,0.402,1.316,1.215,1.437,1.944c0.226,1.363,0.205,2.808,0.031,4.186
	c-0.214,1.702,0.729,2.299,2.075,2.638c1.545,0.389,3.162,0.569,4.64,1.125c1.854,0.697,3.705,1.045,5.67,1.282
	c1.275,0.154,2.399,1.446,3.623,2.176c1.814,1.081,3.706,2.039,5.476,3.187c2.682,1.742,4.456,6.215,3.717,9.312
	c-0.205,0.859-0.331,1.25,0.758,1.571c2.266,0.668,4.576,1.368,6.642,2.476c2.064,1.106,3.635,2.749,3.949,5.433
	c0.166,1.424-0.226,2.196-1.127,3.056c-1.579,1.505-3.065,3.108-4.659,4.596C358.404,336.186,357.676,336.429,357.143,336.727z"/>
<path fill-rule="evenodd" clip-rule="evenodd" d="M810.524,452.271c-10.134-7.35-15.47-3.376-19.443,6.799
	c-4.745,12.158-14.087,13.555-22.393,4.886c-3.077-3.21-8.237-4.426-12.446-6.552c0.09,7.074-2.578,18.412,0.708,20.535
	c23.536,15.204,15.317,37.383,14.897,57.943c-0.064,3.132-1.471,6.65-0.45,9.296c1.438,3.723,3.829,8.148,7.087,9.909
	c13.22,7.144,32.652,0.192,39.838-13.41c6.59-12.47,12.163-25.693,20.342-37.027c5.243-7.263,14.4-11.703,21.685-17.313
	c9.845,3.062,12.236,7.533,8.358,17.554c-4.564,11.798-2.856,25.991-14.031,35.282c-3.603,2.993-7.669,5.771-10.293,9.511
	c-3.139,4.47-4.957,9.863-7.348,14.855c4.647,2.137,9.531,6.365,13.886,5.878c5.338-0.596,13.056-4.066,14.639-8.232
	c2.148-5.663,3.042-9.926,9.827-10.742c1.398-0.169,2.765-2.588,3.715-4.222c8.237-14.119,16.012-28.527,24.762-42.321
	c2.729-4.304,8.015-6.987,11.949-10.263c10.247,9.905,20.252,18.7,29.167,28.49c6.362,6.986-0.487,12.054-4.608,17.115
	c-3.9,4.789-8.351,9.279-11.286,14.604c-0.838,1.521,2.874,7.985,4.286,7.914c8.522-0.423,16.983-2.079,25.462-3.352
	c0.364-0.053,0.72-0.325,1.029-0.561c4.293-3.263,8.11-29.66,5.866-34.585c-4.346-9.527-7.932-19.402-13.237-32.638
	c24.373,8.61,42.017,1.468,58.093-12.477c5.026-4.356,16.301,1.134,20.187,8.166c1.913,3.459,5.68,5.848,7.948,9.171
	c1.341,1.969,2.685,5.519,1.803,7.149c-4.2,7.752-8.029,16.243-14.149,22.28c-7.688,7.583-18.036,12.407-26.155,19.633
	c-5.262,4.685-8.594,11.537-11.299,19.017c13.039-0.84,23.447,3.203,36.169-6.958c17.774-14.195,25.455-36.003,44.008-48.986
	c4.163-2.913,1.567-15.488,2.14-24.525c9.896,6.633,22.809,12.264,30.989,21.91c4.847,5.717,3.48,17.911,2.438,26.907
	c-0.513,4.434-6.352,8.519-10.313,12.181c-2.202,2.036-6.629,2.146-8.085,4.399c-3.254,5.021-5.271,10.844-7.791,16.342
	c4.8,1.8,9.536,4.927,14.419,5.179c24.893,1.29,39.963-15.92,36.169-40.395c-0.601-3.868-1.935-8.231-0.799-11.661
	c5.976-18.038-0.415-32.328-10.327-47.307c-5.643-8.527-7.069-20.278-8.781-30.839c-1.362-8.408-0.272-17.213-0.272-27.723
	c11.954,34.004,28.331,64.32,44.988,95.157c11.532-9.499,13.755-18.568,5.979-24.871c-26.879-21.796-30.71-52.386-34.509-83.6
	c-1.818-14.95-4.959-30.05-10.104-44.133c-2.059-5.631-10.563-10.824-17.104-12.564c-26.882-7.145-53.479-4.458-80.172,3.42
	c-10.784,3.185-22.986,1.793-34.553,2.052c-17.937,0.401-35.882,0.489-53.823,0.593c-7.395,0.044-14.916,0.603-22.17-0.478
	c-25.164-3.75-51.372,9.472-62.385,32.121c-5.844,12.021-11.73,24.022-17.545,36.06
	C821.877,428.468,816.338,440.125,810.524,452.271z"/>
</svg>
