<?xml version="1.0" encoding="utf-8"?>
<!-- Generator: Adobe Illustrator 16.0.0, SVG Export Plug-In . SVG Version: 6.00 Build 0)  -->
<!DOCTYPE svg PUBLIC "-//W3C//DTD SVG 1.1//EN" "http://www.w3.org/Graphics/SVG/1.1/DTD/svg11.dtd">
<svg version="1.1" xmlns="http://www.w3.org/2000/svg" xmlns:xlink="http://www.w3.org/1999/xlink" x="0px" y="0px"
	 width="6514.833px" height="2073px" viewBox="0 0 6514.833 2073" enable-background="new 0 0 6514.833 2073" xml:space="preserve">
<g id="picker">
	<title>Google maps</title>
	<title>Google maps</title>
	<g>
		<title>Layer 1</title>
		<g id="svg_1_5_">
			<path id="svg_2_5_" fill="#231F20" stroke="#999999" stroke-width="37" stroke-miterlimit="10" d="M700.74,1849.716
				c-38.766-190.301-107.116-348.665-189.903-495.439c-61.406-108.872-132.544-209.363-198.363-314.938
				c-21.972-35.244-40.934-72.477-62.047-109.054c-42.216-73.137-76.444-157.936-74.27-267.933
				c2.125-107.473,33.208-193.684,78.03-264.171c73.719-115.935,197.201-210.989,362.884-235.969
				c135.466-20.424,262.476,14.082,352.543,66.748c73.601,43.038,130.596,100.527,173.92,168.28
				c45.221,70.716,76.359,154.26,78.971,263.232c1.338,55.83-7.805,107.532-20.684,150.418
				c-13.034,43.409-33.996,79.695-52.646,118.454c-36.406,75.659-82.05,144.982-127.855,214.347
				C884.884,1350.295,756.824,1560.999,700.74,1849.716z"/>
			
				<circle id="svg_4_5_" display="none" fill="#231F20" stroke="#999999" stroke-width="37" stroke-miterlimit="10" cx="699.347" cy="661.134" r="183.332"/>
		</g>
	</g>
</g>
<g id="sheep">
	<path fill-rule="evenodd" clip-rule="evenodd" fill="#FFFFFF" d="M848.22,461.152c47.123-18.5,72.262,2.609,71.833,60.024
		c47.792,14.614,85.892,44.362,116.027,83.85c11.302,14.815,19.888,32.358,26.617,49.846c8.499,22.072,3.176,43.18-13.92,59.889
		c-16.947,16.569-38.069,16.443-58.907,10.382C955,715,929.611,700.453,910.471,689.118c6,40.964,5.229,44.892,3.15,92.946
		C905,847,884.826,900.471,849.898,941.116c-75.051,87.333-198.473,93.884-282.314,14.944C512.718,904.399,488.938,847.274,481,773
		c-2.782-26.016,0-49,6-86.964c-15.46,10.429-40,25.964-65.164,34.357c-25.806,8.607-49.94,14.462-72.209-5.813
		c-19.173-17.453-23.4-44.053-9.169-73.416c28.613-59.049,75.632-97.904,137.335-120.093c-4.686-62.813,33.529-76.192,72.898-60.957
		c12.245-70.387,36.946-87.791,96.617-68.089c35.207-41.59,68.655-41.542,101.837,0.148
		C815.4,374.324,836.217,388.637,848.22,461.152z M554.052,694.726c-15.464,0-28,12.536-28,28s12.536,28,28,28s28-12.536,28-28
		S569.515,694.726,554.052,694.726z M837,697.726c-15.464,0-28,12.536-28,28s12.536,28,28,28s28-12.536,28-28
		S852.464,697.726,837,697.726z"/>
</g>
<g id="Layer_4">
	<title>Google maps</title>
	<g>
		<title>Layer 1</title>
		<g id="svg_1_1_">
			<path id="svg_2_1_" fill="#231F20" stroke="#999999" stroke-width="37" stroke-miterlimit="10" d="M1926.027,1849.716
				c-38.766-190.301-107.116-348.665-189.903-495.439c-61.406-108.872-132.544-209.363-198.363-314.938
				c-21.972-35.244-40.934-72.477-62.047-109.054c-42.216-73.137-76.444-157.936-74.27-267.933
				c2.125-107.473,33.208-193.684,78.03-264.171c73.719-115.935,197.201-210.989,362.884-235.969
				c135.466-20.424,262.476,14.082,352.543,66.748c73.601,43.038,130.596,100.527,173.92,168.28
				c45.221,70.716,76.359,154.26,78.971,263.232c1.338,55.83-7.805,107.532-20.684,150.418
				c-13.034,43.409-33.996,79.695-52.646,118.454c-36.406,75.659-82.05,144.982-127.855,214.347
				C2110.17,1350.295,1982.111,1560.999,1926.027,1849.716z"/>
			
				<circle id="svg_4_1_" display="none" fill="#231F20" stroke="#999999" stroke-width="37" stroke-miterlimit="10" cx="1924.633" cy="661.134" r="183.332"/>
		</g>
	</g>
</g>
<g id="goat">
	<path fill-rule="evenodd" clip-rule="evenodd" fill="#FFFFFF" d="M2141.565,301.709c14.001,8.147,11.942,17.037,1.43,26.621
		c-46.256,42.178-71.043,97.131-89.092,155.183c-3.869,12.439,1.993,28.539,5.795,42.284c0.928,3.355,11.702,6.223,17.415,5.435
		c6.806-0.935,13.321-5.595,19.468-9.429c39.412-24.572,82.001-34.349,127.942-26.791c28.304,4.653,49.904,19.514,64.079,45.096
		c5.57,10.058,5.22,18.619-0.252,28.476c-22.71,40.923-61.222,57.122-103.914,65.094c-27.018,5.044-30.095,3.636-54.742,6.292
		c7.351,139.633-71.993,255.967-83.061,283.625c-4.803,12.002-35.582,58.695-51.518,76.707
		c-17.063,19.287-107.059,22.287-142.807-1.262c-15.546-14.348-39.145-45.491-45.676-63.445
		c-8.811-24.207-106.067-175.491-92.843-295.831c0.242-2.207-21.97-1.278-49.541-6.1c-36.211-6.336-69.611-19.812-93.597-49.775
		c-19.465-24.313-18.693-38.993,2.639-61.951c19.81-21.315,45.456-29.171,73.346-29.483c38.603-0.427,74.906,8.555,107.491,30.421
		c5.942,3.988,12.878,7.842,19.731,8.674c5.148,0.625,15.025-2.819,15.682-5.949c3.159-15.03,8.979-32.219,4.615-45.643
		c-18.58-57.224-43.564-111.464-89.367-153.305c-3.87-3.54-4.496-10.631-6.632-16.072c5.848-2.205,12.69-7.538,17.356-6.049
		c15.382,4.916,31.263,10.331,44.636,19.094c46.144,30.238,76.216,74.371,102.721,121.729c10.211,18.249,24.005,34.64,37.286,50.964
		c7.862,9.665,45.134,5.893,52.204-4.491c17.229-25.31,34.523-50.586,51.101-76.318c24.426-37.912,52.474-72.379,91.562-95.989
		c12.338-7.453,26.457-11.957,39.759-17.812C2137.038,301.709,2139.305,301.709,2141.565,301.709z M1783.158,682.106
		c-15.463,0-28,12.536-28,28s12.537,28,28,28c15.465,0,28-12.536,28-28S1798.623,682.106,1783.158,682.106z M2066.108,684.106
		c-15.464,0-28,12.536-28,28s12.536,28,28,28s28-12.536,28-28S2081.572,684.106,2066.108,684.106z"/>
</g>
<g id="Layer_9">
	<g>
		<title>Layer 1</title>
		<g id="svg_1_4_">
			<path id="svg_2_4_" fill="#231F20" stroke="#999999" stroke-width="37" stroke-miterlimit="10" d="M5801.963,1867.986
				c-38.766-190.301-107.116-348.666-189.903-495.439c-61.406-108.873-132.544-209.363-198.363-314.939
				c-21.972-35.243-40.934-72.475-62.047-109.052c-42.216-73.137-76.444-157.936-74.27-267.933
				c2.125-107.473,33.208-193.684,78.03-264.171c73.719-115.935,197.201-210.989,362.884-235.969
				c135.466-20.424,262.476,14.082,352.543,66.748c73.601,43.038,130.596,100.527,173.92,168.28
				c45.221,70.716,76.359,154.26,78.971,263.232c1.338,55.83-7.805,107.532-20.684,150.418
				c-13.034,43.409-33.996,79.695-52.646,118.454c-36.406,75.659-82.05,144.982-127.855,214.345
				C5986.106,1368.564,5858.047,1579.27,5801.963,1867.986z"/>
			<circle id="svg_4_4_" display="none" fill="#231F20" stroke="#999999" cx="5800.569" cy="673.891" r="183.332"/>
		</g>
	</g>
</g>
<g id="llama">
	<path fill="#FFFFFF" d="M6009.001,594.333c27-57-28.946-69.813-28.946-69.813c65.039-92.203-6.889-186.939-23.994-188.873
		c-25.619-2.896-61,103.67-72.059,103.84c-13.065,0.201,0,0.001,0,0c-13.644-52.865-69.549-12.367-69.549-12.367
		c-44.998-35.999-73.381,4.17-73.381,4.17c-8.828,1.186,9.851,17.092,0,0c-35.312-61.272-64.793-111.157-77.012-97.923
		c-93,100.728-15.135,190.395-15.135,190.395c-71.051,8.354-35.055,72.85-35.055,72.85c-35.259,24.082-18.226,67.719,7.501,67.496
		c2.991-0.026,0.001,0,0,0c-8.035,15.89,3.855,22.701,12.965,24.225c4.178,0.699,10.839-2.943,10-2l-1.745,3.474
		c-68.531,188.51,16.469,267.51,16.469,267.51c-42.189,32.275-2.234,60.979-2.234,60.979c-39.326,34.203,2.842,59.37,2.842,59.37
		c-28.539,7.51-7.334,62,23.333,47.333l8-3.666c-2.668,22.333,41.335,37,54.667,3.666c0.702-1.756,0.702-1.756,0.702-1.756
		c3.154,7.846,10.773,24.588,31.296,24.673c18.363,0.076,22.903-8.917,26.557-19.446c3.875-11.169,0.778-4.804,0.778-4.804
		c3.53,10.565,13.995,23.505,28.017,24.18c18.648,0.897,26.648-6.847,31.983-20.847c1.914-5.022-1.691-4.815,1.457-0.115
		c4.299,6.417,3.082,14.053,19.543,19.115c7.665,2.357,12.916,1.109,16.954,0.264c26.711-5.597,16.283-31.015,20.046-28.597
		c9.336,5.999,27.333,15.333,41.228-4.489C5979.291,1091.689,5960,1075,5960,1075c40.333-28,4.854-59.908,4.854-59.908
		c37.479-27.425,2.999-58.497,2.999-58.497c88.497-86.995,20.037-265.132,20.037-265.132c0.729-1.422-2.696-2.395-0.555-5.129
		c1.098-1.402,7.985,4.577,15-4c8.997-11,0.018-16.725,0.018-16.725C6049.001,631.333,6009.001,594.333,6009.001,594.333z
		 M5680.869,782.104c-15.463,0-28-12.536-28-28s12.537-28,28-28c15.465,0,28,12.536,28,28S5696.334,782.104,5680.869,782.104z
		 M5949.357,782.795c-15.464,0-28-12.536-28-28s12.536-28,28-28s28,12.536,28,28S5964.821,782.795,5949.357,782.795z"/>
</g>
<g id="Layer_5">
	<title>Google maps</title>
	<g>
		<title>Layer 1</title>
		<g id="svg_1_2_">
			<path id="svg_2_2_" fill="#231F20" stroke="#999999" stroke-width="37" stroke-miterlimit="10" d="M3176.685,1849.717
				c-38.766-190.301-107.116-348.666-189.903-495.439c-61.406-108.873-132.544-209.363-198.363-314.939
				c-21.972-35.244-40.934-72.476-62.047-109.053c-42.216-73.137-76.444-157.936-74.27-267.933
				c2.125-107.473,33.208-193.684,78.03-264.171c73.719-115.935,197.201-210.989,362.884-235.969
				c135.466-20.424,262.476,14.082,352.543,66.748c73.601,43.038,130.596,100.527,173.92,168.28
				c45.221,70.716,76.359,154.26,78.971,263.232c1.338,55.83-7.805,107.532-20.684,150.418
				c-13.034,43.409-33.996,79.695-52.646,118.454c-36.406,75.659-82.05,144.983-127.855,214.346
				C3360.828,1350.295,3232.769,1561,3176.685,1849.717z"/>
			<circle id="svg_4_2_" display="none" fill="#231F20" stroke="#999999" cx="3175.291" cy="661.134" r="183.332"/>
		</g>
	</g>
</g>
<g id="cow">
	<path fill-rule="evenodd" clip-rule="evenodd" fill="#FFFFFF" d="M2772.657,541.349c-4.675-7.608-9.785-14.973-12.018-23.588
		c-2.229-8.596,1.956-15.231,8.334-20.718c6.817-5.864,15.059-8.949,23.381-11.647c19.64-6.362,39.861-8.961,60.478-7.995
		c13.197,0.618,26.186,2.723,39.12,5.519c10.907,2.357,20.546,6.632,28.387,14.604c6.051,6.151,11.832,12.565,17.944,18.65
		c10.932,10.883,22.495,12.034,35.566,20.34c1.384,0.881,2.804,1.712,4.244,2.5c3.409,1.864,7.258,1.52,9.602-1.496
		c4.306-5.541,8.805-11.518,7.271-23.234c-8.929-7.719-11.478-11.973-21.966-27.283c-8-13-28-49.333-19.213-94.649
		c0.776-3.62,2.088-7.161,3.508-10.59c0.505-1.215,2.051-2.742,3.145-2.761c1.096-0.02,2.736,1.449,3.241,2.644
		C2965.776,386.58,2977,399,2992.334,425c6.473,10.975,14.67,18.73,27.333,29.333c10.106,7.853,21.505,14.65,21.505,14.65
		c10.896-1.192,18.86-0.557,29.553-2.96c13.354-3,26.509-6.885,39.717-10.511c8.247-2.265,16.375-4.979,24.659-7.099
		c15.63-3.998,31.266-8.629,47.672-6.557c7.704,0.973,15.384,2.555,22.891,4.549c18.437,4.895,36.73,10.322,55.15,15.271
		c10.057,2.703,20.205,5.128,30.412,7.191c6.553,1.324,13.262,0.149,19.938,0.469c5.365,0.257,9.591-0.361,14.725-1.954
		c10.01-4.938,21.71-23.519,29.777-35.05c7.523-8.113,13.634-16.927,19.306-28.999c6.034-12.84,8.101-12.795,13.684-25.853
		c0.87-2.042,2.583-4.769,4.344-5.147c2.841-0.612,3.739,2.689,4.266,4.907c1.739,7.349,4.368,19.842,5.045,27.317
		c1.239,13.648,0.479,27.633-0.644,39.777c-1.309,14.158-3.012,26.549-10.667,38.667c-9.091,14.387-24.147,27.195-29.117,29.467
		c-2.513,0.95-4.541,0.583-6.955,4.368c-2.959,4.646-0.616,10.445,1.405,14.833c1.817,3.945,10.036,11.963,15.248,8.823
		c16.815-10.138,31.043-16.346,44.722-30.218c4.824-4.892,9.268-10.175,14.257-14.889c6.661-6.293,14.786-9.976,23.704-12.005
		c19.17-4.36,38.529-7.037,58.221-5.943c20.213,1.121,39.916,4.923,58.217,13.888c4.879,2.388,9.479,6.04,13.131,10.084
		c6.113,6.77,5.785,14.64,1.871,22.686c-11.438,23.503-27.799,43.102-47.248,60.314c-14.939,13.222-31.083,24.792-48.234,34.924
		c-10.117,5.976-21.305,9.052-32.782,11.323c-17.593,3.48-35.284,5.081-53.135,2.9c-5.273-0.644-10.407-1.769-15.585,0.175
		c-1.637,0.613-7.08,19.893-8.114,26.896c-1.638,11.086-3.325,22.166-5.085,33.233c-1.641,10.305-22.678,217.938-23.033,234.238
		c-0.405,18.783-43.589,64.527-50.02,60.828C3280,976,3252,992,3246.417,1012.421c-15.417,10.815-133.001,20.67-142.373,1.831
		C3088,982,3072,981,3049.431,989.131c-11.51-0.223-50.058-51.044-48.929-71.534c0.785-14.324-20.626-207.79-22.372-218.501
		c-2.258-13.876-4.586-27.742-6.871-41.614c-1.043-6.319-0.742-19.181-7.389-22.241c-5.645-2.601-11.359-2.934-17.639-2.078
		c-8.453,1.154-17.111,1.312-25.664,1.145c-14.568-0.285-28.865-3.013-42.883-6.778c-10.088-2.709-19.205-7.807-27.986-13.491
		c-21.662-14.021-41.905-29.742-59.098-49.113L2772.657,541.349z M3048.038,684.726c-15.463,0-28,12.536-28,28s12.537,28,28,28
		c15.465,0,28-12.536,28-28S3063.503,684.726,3048.038,684.726z M3304.988,687.726c-15.464,0-28,12.536-28,28s12.536,28,28,28
		s28-12.536,28-28S3320.451,687.726,3304.988,687.726z"/>
</g>
<g id="Layer_7">
	<title>Google maps</title>
	<g>
		<title>Layer 1</title>
		<g id="svg_1_3_">
			<path id="svg_2_3_" fill="#231F20" stroke="#999999" stroke-width="37" stroke-miterlimit="10" d="M4485.064,1849.717
				c-38.766-190.301-107.116-348.666-189.903-495.439c-61.406-108.873-132.544-209.363-198.363-314.939
				c-21.971-35.244-40.933-72.476-62.047-109.053c-42.216-73.137-76.444-157.936-74.27-267.933
				c2.125-107.473,33.208-193.684,78.03-264.171c73.719-115.935,197.201-210.989,362.884-235.969
				c135.466-20.424,262.476,14.082,352.543,66.748c73.601,43.038,130.596,100.527,173.92,168.28
				c45.221,70.716,76.359,154.26,78.971,263.232c1.338,55.83-7.805,107.532-20.684,150.418
				c-13.034,43.409-33.996,79.695-52.646,118.454c-36.406,75.659-82.05,144.983-127.855,214.346
				C4669.208,1350.295,4541.148,1561,4485.064,1849.717z"/>
			<circle id="svg_4_3_" display="none" fill="#231F20" stroke="#999999" cx="4483.671" cy="661.134" r="183.332"/>
		</g>
	</g>
</g>
<g id="dog">
	<g>
		<path fill="#FFFFFF" d="M4435.912,316.427c4.729,0,9.451,0,14.179,0c6.599,7.996,12.239,16.209,13.406,27.167
			c0.729,6.846,3.813,13.432,5.737,20.166c4.762,16.694,9.326,33.447,14.232,50.1c3.631,12.319,7.67,24.517,11.885,37.902
			c3.08-2.174,4.898-3.029,6.142-4.401c18.989-20.971,37.52-42.372,57.116-62.753c4.522-4.701,12.803-8.507,19.033-8.077
			c6.15,0.423,12.188,5.916,12.938,14.617c3.13,36.21,6.849,72.372,10.134,108.572c0.496,5.483,2.142,8.294,8.139,9.322
			c19.127,3.283,36.09,11.608,51.016,24.006c23.415,19.445,37.012,44.477,42.932,74.172c0.658,3.305,4.844,7.063,8.273,8.477
			c28.052,11.573,56.346,22.563,84.504,33.882c25.027,10.064,49.893,20.54,74.995,30.411c15.251,5.998,18.773,14.976,11.767,29.579
			c-8.071,16.822-18.476,32.988-30.286,47.465c-30.507,37.394-66.812,67.34-112.718,85.098
			c-29.468,11.399-59.6,18.348-90.879,19.327c-15.637,0.49-31.42-2.388-47.07-4.296c-8.294-1.011-11.463,1.277-11.346,10.145
			c0.425,32.375,0.212,64.76,0.137,97.142c-0.031,13.143,2.846,27.195-10.46,36.575c-8.383,3.976-10.679,1.541-16.717,0
			c-4.537-1.729-12.492-4.427-17.174-5.018c-19.005-2.401-38.118-3.937-57.143-6.219c-14.335-1.718-28.605-4.007-42.88-6.193
			c-18.601-2.848-37.137-6.164-55.781-8.685c-18.99-2.569-38.098-4.284-57.121-6.634c-13.678-1.688-27.318-3.699-40.947-5.752
			c-19.938-3.004-39.785-8.102-59.792-8.79c-24.765-0.853-25.363-17.248-19.429-34.128c2.769-7.874,5.627-15.715,8.467-23.563
			c6.024-16.648,12.031-33.302,18.106-49.934c6.298-17.238,12.746-34.42,18.987-51.678c6.132-16.961,12.003-34.017,18.143-50.974
			c8.184-22.6,16.587-45.121,24.765-67.722c7.845-21.674,15.436-43.439,23.292-65.108c8.192-22.588,16.639-45.082,24.839-67.666
			c7.877-21.694,15.466-43.491,23.388-65.168c9.75-26.683,19.322-53.438,29.693-79.88
			C4413.136,370.576,4418.03,340.817,4435.912,316.427z M4643.896,634.25c0.159-17.116-10.975-28.817-27.569-28.974
			c-17.181-0.162-30.928,12.493-31.082,28.617c-0.146,15.163,14.371,29.87,29.601,29.99
			C4630.646,664.009,4643.74,650.649,4643.896,634.25z"/>
	</g>
</g>
</svg>
