<?xml version="1.0" encoding="utf-8"?>
<!-- Generator: Adobe Illustrator 16.0.0, SVG Export Plug-In . SVG Version: 6.00 Build 0)  -->
<!DOCTYPE svg PUBLIC "-//W3C//DTD SVG 1.1//EN" "http://www.w3.org/Graphics/SVG/1.1/DTD/svg11.dtd">
<svg version="1.1" id="Layer_1" xmlns="http://www.w3.org/2000/svg" xmlns:xlink="http://www.w3.org/1999/xlink" x="0px" y="0px"
	 width="169.333px" height="150.667px" viewBox="0 0 169.333 150.667" enable-background="new 0 0 169.333 150.667"
	 xml:space="preserve">
<g>
	<path fill-rule="evenodd" clip-rule="evenodd" d="M3.521,33.362c0.742-1.435,1.311-2.998,2.261-4.277
		c1.965-2.646,4.825-3.612,8.033-3.614c17.21-0.009,34.421-0.032,51.631,0.011c6.367,0.016,10.36,4.13,10.36,10.481
		c0.003,33.302,0.003,66.604,0,99.906c0,6.451-4.089,10.564-10.56,10.57c-16.995,0.016-33.991-0.034-50.986,0.031
		c-4.796,0.019-9.172-2.489-10.5-7.587c-0.041-0.157-0.158-0.294-0.24-0.44C3.521,103.416,3.521,68.389,3.521,33.362z
		 M10.007,45.783c0,0.606,0,1.069,0,1.532c0,22.024,0.009,44.048-0.025,66.072c-0.002,1.204,0.273,1.608,1.551,1.605
		c18.755-0.041,37.51-0.042,56.264,0c1.291,0.003,1.542-0.421,1.541-1.615c-0.034-22.024-0.024-44.048-0.028-66.072
		c0-0.496-0.057-0.993-0.089-1.522C49.459,45.783,29.852,45.783,10.007,45.783z M10.083,121.473
		c-0.031,0.508-0.073,0.888-0.073,1.267c-0.005,4.429-0.014,8.857,0,13.287c0.008,2.604,1.248,3.898,3.889,3.901
		c17.157,0.021,34.315,0.019,51.472,0.001c2.708-0.003,3.933-1.29,3.938-3.98c0.008-4.386,0.005-8.772,0.001-13.158
		c0-0.418-0.047-0.835-0.077-1.317C49.494,121.473,29.861,121.473,10.083,121.473z M39.66,39.208c8.987,0,17.975,0,26.962,0
		c2.69,0,2.69,0.001,2.692-2.74c0.002-3.456-1.081-4.538-4.562-4.538c-16.728-0.002-33.456-0.002-50.184,0.003
		c-0.6,0-1.206,0.028-1.797,0.122c-1.309,0.208-2.251,0.96-2.526,2.249c-0.221,1.035-0.209,2.126-0.229,3.195
		c-0.032,1.71-0.007,1.711,1.649,1.711C20.997,39.209,30.328,39.209,39.66,39.208z"/>
	<path fill-rule="evenodd" clip-rule="evenodd" d="M165.145,80.093c-0.704,2.124-1.446,4.222-3.107,5.844
		c-2.295,2.24-5.089,3.063-8.227,3.06c-13.896-0.014-27.792-0.007-41.688-0.003c-2.31,0.001-2.04-0.212-2.06,2.089
		c-0.004,0.508,0,1.016,0,1.703c0.572,0,1.029,0,1.487,0.001c3.657,0.002,7.314-0.038,10.97,0.025
		c1.998,0.034,3.434,1.083,4.139,2.953c0.664,1.759,0.217,3.41-1.21,4.539c-0.813,0.643-2.001,1.132-3.025,1.139
		c-11.228,0.079-22.457,0.067-33.686,0.034c-2.648-0.008-4.446-1.862-4.43-4.36c0.015-2.394,1.959-4.29,4.532-4.317
		c3.656-0.039,7.313-0.012,10.97-0.014c0.467,0,0.934,0,1.485,0c0-1.269,0-2.449,0-3.801c-7.397,0-14.772,0-22.285,0
		c0-2.781-0.015-5.396,0.028-8.01c0.003-0.216,0.366-0.535,0.621-0.612c0.355-0.107,0.766-0.035,1.153-0.035
		c24.092,0,48.185,0,72.277-0.002c0.559,0,1.126,0.033,1.674-0.052c1.003-0.156,1.637-0.722,1.682-1.802
		c0.016-0.386,0.025-0.773,0.025-1.16c0.001-20.177,0.001-40.355,0-60.533c0-2.767-0.371-3.14-3.126-3.14
		c-31.75,0-63.501,0-95.251,0c-2.691,0-3.112,0.43-3.113,3.169c-0.001,2.101,0,4.201,0,6.384c-2.894,0-5.667,0-8.674,0
		c0-1.201-0.064-2.388,0.013-3.565c0.162-2.476,0.032-5.048,0.682-7.398c1.164-4.209,4.32-6.458,8.591-7.144
		c0.592-0.095,1.2-0.117,1.801-0.117c32.224-0.005,64.448-0.006,96.672-0.002c3.707,0,6.872,1.291,8.997,4.389
		c0.944,1.376,1.403,3.085,2.082,4.644C165.145,36.029,165.145,58.062,165.145,80.093z"/>
	<path fill-rule="evenodd" clip-rule="evenodd" fill="#FFFFFF" d="M10.007,45.783c19.844,0,39.452,0,59.214,0
		c0.032,0.529,0.088,1.026,0.089,1.522c0.004,22.024-0.005,44.048,0.028,66.072c0.001,1.194-0.25,1.618-1.541,1.615
		c-18.754-0.042-37.509-0.041-56.264,0c-1.277,0.003-1.553-0.401-1.551-1.605c0.034-22.024,0.025-44.048,0.025-66.072
		C10.007,46.852,10.007,46.389,10.007,45.783z"/>
	<path fill-rule="evenodd" clip-rule="evenodd" fill="#FFFFFF" d="M10.083,121.473c19.778,0,39.411,0,59.15,0
		c0.029,0.482,0.076,0.899,0.077,1.317c0.004,4.386,0.007,8.772-0.001,13.158c-0.005,2.69-1.23,3.978-3.938,3.98
		c-17.157,0.018-34.315,0.02-51.472-0.001c-2.641-0.003-3.881-1.297-3.889-3.901c-0.014-4.43-0.005-8.858,0-13.287
		C10.01,122.36,10.052,121.98,10.083,121.473z M46.255,129.652c-0.119-3.73-3.097-6.544-6.802-6.428
		c-3.648,0.115-6.48,3.082-6.406,6.712c0.076,3.688,3.121,6.633,6.754,6.529C43.492,136.361,46.373,133.321,46.255,129.652z"/>
	<path fill-rule="evenodd" clip-rule="evenodd" fill="#FFFFFF" d="M39.66,39.208c-9.332,0-18.663,0-27.995,0
		c-1.656,0-1.681,0-1.649-1.711c0.02-1.068,0.008-2.16,0.229-3.195c0.275-1.288,1.218-2.041,2.526-2.249
		c0.591-0.094,1.198-0.121,1.797-0.122c16.728-0.006,33.456-0.005,50.184-0.003c3.481,0,4.563,1.083,4.562,4.538
		c-0.002,2.741-0.002,2.74-2.692,2.74C57.635,39.208,48.647,39.208,39.66,39.208z"/>
	<path fill-rule="evenodd" clip-rule="evenodd" d="M46.255,129.652c0.118,3.669-2.763,6.709-6.454,6.813
		c-3.633,0.104-6.678-2.841-6.754-6.529c-0.074-3.63,2.758-6.597,6.406-6.712C43.158,123.108,46.136,125.922,46.255,129.652z"/>
</g>
</svg>
