<?xml version="1.0" encoding="utf-8"?>
<!-- Generator: Adobe Illustrator 16.0.0, SVG Export Plug-In . SVG Version: 6.00 Build 0)  -->
<!DOCTYPE svg PUBLIC "-//W3C//DTD SVG 1.1//EN" "http://www.w3.org/Graphics/SVG/1.1/DTD/svg11.dtd">
<svg version="1.1" xmlns="http://www.w3.org/2000/svg" xmlns:xlink="http://www.w3.org/1999/xlink" x="0px" y="0px" width="1160px"
	 height="1920px" viewBox="0 0 1160 1920" enable-background="new 0 0 1160 1920" xml:space="preserve">
<g id="picker">
	<g>
		<title>Layer 1</title>
		<g id="svg_1_3_">
			<path id="svg_2_3_" fill="#231F20" stroke="#989898" stroke-width="37" stroke-miterlimit="10" d="M581.394,1782.731
				c-38.766-190.301-107.116-348.666-189.903-495.439c-61.406-108.873-132.544-209.363-198.363-314.939
				c-21.972-35.243-40.934-72.476-62.047-109.053c-42.216-73.137-76.444-157.936-74.27-267.933
				c2.125-107.473,33.208-193.684,78.03-264.171C208.56,215.26,332.042,120.206,497.725,95.226
				C633.19,74.802,760.2,109.308,850.268,161.974c73.601,43.038,130.596,100.527,173.92,168.28
				c45.221,70.716,76.359,154.26,78.971,263.232c1.338,55.83-7.805,107.532-20.684,150.418
				c-13.034,43.409-33.996,79.695-52.646,118.454c-36.406,75.66-82.05,144.983-127.855,214.346
				C765.537,1283.31,637.478,1494.015,581.394,1782.731z"/>
		</g>
	</g>
</g>
<g id="dog">
	<g>
		<path fill="#FFFFFF" d="M532.241,249.442c4.729,0,9.451,0,14.179,0c6.599,7.996,12.239,16.209,13.406,27.167
			c0.729,6.846,3.813,13.432,5.737,20.166c4.762,16.694,9.326,33.447,14.232,50.1c3.631,12.319,7.67,24.517,11.885,37.902
			c3.08-2.174,4.898-3.029,6.142-4.401c18.989-20.971,37.52-42.372,57.116-62.753c4.522-4.701,12.803-8.507,19.033-8.077
			c6.15,0.423,12.188,5.916,12.938,14.617c3.13,36.21,6.849,72.372,10.134,108.572c0.496,5.483,2.142,8.294,8.139,9.322
			c19.127,3.283,36.09,11.608,51.016,24.006c23.415,19.445,37.012,44.477,42.932,74.172c0.658,3.305,4.844,7.063,8.273,8.477
			c28.052,11.573,56.346,22.563,84.504,33.882c25.027,10.064,49.893,20.54,74.995,30.411c15.251,5.998,18.773,14.976,11.767,29.579
			c-8.071,16.822-18.476,32.988-30.286,47.465c-30.507,37.394-66.812,67.34-112.718,85.098
			c-29.468,11.399-59.6,18.348-90.879,19.327c-15.637,0.49-31.42-2.388-47.07-4.296c-8.294-1.011-11.463,1.277-11.346,10.145
			c0.425,32.375,0.212,64.76,0.137,97.142c-0.031,13.143,2.846,27.195-10.46,36.575c-8.383,3.976-10.679,1.541-16.717,0
			c-4.537-1.729-12.492-4.427-17.174-5.018c-19.005-2.401-38.118-3.937-57.143-6.219c-14.335-1.718-28.605-4.007-42.88-6.193
			c-18.601-2.848-37.137-6.164-55.781-8.685c-18.99-2.569-38.098-4.284-57.121-6.634c-13.678-1.688-27.318-3.699-40.947-5.752
			c-19.938-3.004-39.785-8.102-59.792-8.79c-24.765-0.853-25.363-17.248-19.429-34.128c2.769-7.874,5.627-15.715,8.467-23.563
			c6.024-16.648,12.031-33.302,18.106-49.934c6.298-17.238,12.746-34.42,18.987-51.678c6.132-16.961,12.003-34.017,18.143-50.974
			c8.184-22.6,16.587-45.121,24.765-67.722c7.845-21.674,15.436-43.439,23.292-65.108c8.192-22.588,16.639-45.082,24.839-67.666
			c7.877-21.694,15.466-43.491,23.388-65.168c9.75-26.683,19.322-53.438,29.693-79.88
			C509.465,303.591,514.359,273.832,532.241,249.442z M740.225,567.265c0.159-17.116-10.975-28.817-27.569-28.974
			c-17.181-0.162-30.928,12.493-31.082,28.617c-0.146,15.163,14.371,29.87,29.601,29.99
			C726.976,597.023,740.069,583.664,740.225,567.265z"/>
	</g>
</g>
</svg>
