<?xml version="1.0" encoding="utf-8"?>
<!-- Generator: Adobe Illustrator 16.0.0, SVG Export Plug-In . SVG Version: 6.00 Build 0)  -->
<!DOCTYPE svg PUBLIC "-//W3C//DTD SVG 1.1//EN" "http://www.w3.org/Graphics/SVG/1.1/DTD/svg11.dtd">
<svg version="1.1" xmlns="http://www.w3.org/2000/svg" xmlns:xlink="http://www.w3.org/1999/xlink" x="0px" y="0px" width="1160px"
	 height="1920px" viewBox="0 0 1160 1920" enable-background="new 0 0 1160 1920" xml:space="preserve">
<g id="picker">
	<g>
		<title>Layer 1</title>
		<g id="svg_1_1_">
			<path id="svg_2_1_" fill="#231F20" stroke="#989898" stroke-width="37" stroke-miterlimit="10" d="M581.026,1766.716
				c-38.766-190.301-107.116-348.665-189.903-495.439c-61.406-108.872-132.544-209.363-198.363-314.938
				c-21.972-35.244-40.934-72.477-62.047-109.054c-42.216-73.137-76.444-157.936-74.27-267.933
				c2.125-107.473,33.208-193.684,78.03-264.171c73.719-115.935,197.201-210.989,362.884-235.969
				C632.823,58.787,759.833,93.293,849.9,145.959c73.601,43.038,130.596,100.527,173.92,168.28
				c45.221,70.716,76.359,154.26,78.971,263.232c1.338,55.83-7.805,107.532-20.684,150.418
				c-13.034,43.409-33.996,79.695-52.646,118.454c-36.406,75.659-82.05,144.982-127.855,214.347
				C765.17,1267.295,637.11,1477.999,581.026,1766.716z"/>
		</g>
	</g>
</g>
<g id="goat">
	<path fill-rule="evenodd" clip-rule="evenodd" fill="#FFFFFF" d="M796.564,218.709c14.001,8.147,11.942,17.037,1.43,26.621
		c-46.256,42.178-71.043,97.131-89.092,155.183c-3.869,12.439,1.993,28.539,5.795,42.284c0.928,3.355,11.702,6.223,17.415,5.435
		c6.806-0.935,13.321-5.595,19.468-9.429c39.412-24.572,82.001-34.349,127.942-26.791c28.304,4.653,49.904,19.514,64.079,45.096
		c5.57,10.058,5.22,18.619-0.252,28.476c-22.71,40.923-61.222,57.122-103.914,65.094c-27.018,5.044-30.095,3.636-54.742,6.292
		c7.351,139.633-71.993,255.967-83.061,283.625c-4.803,12.002-35.582,58.695-51.518,76.707
		c-17.063,19.287-107.059,22.287-142.807-1.262c-15.546-14.348-39.145-45.491-45.676-63.445
		c-8.811-24.207-106.067-175.491-92.843-295.831c0.242-2.207-21.97-1.278-49.541-6.1c-36.211-6.336-69.611-19.812-93.597-49.775
		c-19.465-24.313-18.693-38.993,2.639-61.951c19.81-21.315,45.456-29.171,73.346-29.483c38.603-0.427,74.906,8.555,107.491,30.421
		c5.942,3.988,12.878,7.842,19.731,8.674c5.148,0.625,15.025-2.819,15.682-5.949c3.159-15.03,8.979-32.219,4.615-45.643
		c-18.58-57.224-43.564-111.464-89.367-153.305c-3.87-3.54-4.496-10.631-6.632-16.072c5.848-2.205,12.69-7.538,17.356-6.049
		c15.382,4.916,31.263,10.331,44.636,19.094c46.144,30.238,76.216,74.371,102.721,121.729c10.211,18.249,24.005,34.64,37.286,50.964
		c7.862,9.665,45.134,5.893,52.204-4.491c17.229-25.31,34.523-50.586,51.101-76.318c24.426-37.912,52.474-72.379,91.562-95.989
		c12.338-7.453,26.457-11.957,39.759-17.812C792.038,218.709,794.305,218.709,796.564,218.709z M438.158,599.106
		c-15.463,0-28,12.536-28,28s12.537,28,28,28c15.465,0,28-12.536,28-28S453.623,599.106,438.158,599.106z M721.107,601.106
		c-15.464,0-28,12.536-28,28s12.536,28,28,28s28-12.536,28-28S736.571,601.106,721.107,601.106z"/>
</g>
</svg>
