<?xml version="1.0" encoding="utf-8"?>
<!-- Generator: Adobe Illustrator 16.0.0, SVG Export Plug-In . SVG Version: 6.00 Build 0)  -->
<!DOCTYPE svg PUBLIC "-//W3C//DTD SVG 1.1//EN" "http://www.w3.org/Graphics/SVG/1.1/DTD/svg11.dtd">
<svg version="1.1" id="Layer_1" xmlns="http://www.w3.org/2000/svg" xmlns:xlink="http://www.w3.org/1999/xlink" x="0px" y="0px"
	 width="153.333px" height="157.333px" viewBox="0 0 153.333 157.333" enable-background="new 0 0 153.333 157.333"
	 xml:space="preserve">
<path fill-rule="evenodd" clip-rule="evenodd" fill="#9B9B9B" d="M5.708,123.815c2.474-5.05,4.985-10.081,7.396-15.159
	c0.693-1.461,1.471-3.035,1.569-4.598c0.433-6.857,4.148-11.791,9.01-16.104c2.95-2.617,5.851-3.301,8.446,0.946
	c3.847-2.963,7.648-3.031,11.457-0.234c0.641,0.47,1.623,0.979,2.298,0.823c10.867-2.513,22.304-1.764,32.59-7.929
	c7.793-4.671,14.279-9.897,18.463-17.914c-4.56-7.232-5.531-12.603-2.682-14.824c3.358-2.617,5.781-2.394,8.758,0.246
	c3.686-1.396,7.035-3.785,10.164-3.523c2.942,0.247,5.883,3.018,8.408,5.167c3.723,3.169,6.561,7.74,10.715,9.952
	c5.553,2.957,4.404,7.657,4.134,11.646c-0.172,2.533-2.852,6.316-5.184,7.043c-11.962,3.724-14.3,13.526-16.175,23.76
	c-1.047,5.713-1.733,11.492-2.742,18.318c0.982,0.213,3.982,1.139,6,1.509c0.55,0.101-0.693,8.056-0.125,8.125
	c0.504,0.062,1.63-8.156,2.135-8.107c0.893,0.086,1.788,0.156,2.685,0.221c0.723,0.052,0.626,10.919,1.348,10.97
	c0.553,0.039,1.925-10.739,2.477-10.695c0.848,0.067,1.693,0.145,2.536,0.24c0.585,0.066-0.428,10.867,0.153,10.955
	c0.291,0.044,2.179-10.635,2.469-10.585c0.28,0.049,0.563,0.107,0.847,0.176c2.088,0.504,4.216,1.53,5.791,2.887
	c1.527,1.315,4.743,3.041,4.685,6.207c-0.017,0.931-0.646,0.516-1.667,1.667c-0.332,0.374-10.333-7.553-0.667,1.166
	c0.193,0.174-0.827,1.999-1.083,2.083c-1.518,0.499-3.567,0.136-6.204-2.041c-1.927-1.59-3.04,0.387-5.529-0.082
	c-0.386-0.072,0.079-9.899-0.307-9.978c-0.382-0.077-1.614,9.595-1.995,9.513c-1.295-0.279-2.584-0.58-3.869-0.885
	c-0.441-0.105,0.138-8.023-0.303-8.128c-0.517-0.123-2.04,7.565-2.529,7.46c-2.441-0.525-4.521-0.571-6.066,2.489
	c-1.652,3.269-4.486,4.21-8.246,4.29c-8.178,0.175-16.43-1.956-24.604,0.895c-1.407,0.49-3.68-1.502-6.259-2.666
	c-5.733,3.962-12.956,0.309-20.462,0.026c-1.456,3.298-3.363,6.017-8.453,3.899c-2.043-0.849-5.173,0.26-7.592,1.102
	c-5.876,2.045-7.686-2.655-10.515-5.834c-9.623,3.471-10.88,2.975-12.534-5.35c-6.354,4.108-6.872-1.593-8.74-5.145
	C5.708,126.482,5.708,125.148,5.708,123.815z"/>
<path fill="#9B9B9B" d="M70.355,11.767c0,17.048,0,34.096,0,51.144c-0.257,0.585-0.433,1.226-0.786,1.745
	c-0.871,1.279-2.167,1.727-3.684,1.725c-12.847-0.009-25.694-0.005-38.542-0.005c-4.888,0-9.776-0.003-14.665,0.001
	c-1.203,0.001-2.267-0.328-3.154-1.179c-0.662-0.635-0.933-1.46-1.216-2.287c0-17.048,0-34.096,0-51.144
	c0.066-0.186,0.139-0.37,0.195-0.558c0.335-1.12,1.042-1.928,2.063-2.474c0.692-0.37,1.445-0.433,2.209-0.433
	c10.372,0,20.743,0,31.115-0.001c7.349,0,14.698,0.003,22.046-0.002c1.202-0.001,2.269,0.304,3.166,1.151
	C69.783,10.09,70.068,10.924,70.355,11.767z M33.184,24.106c0,1.751,0,3.501,0,5.252c0,1.345-0.479,1.831-1.81,1.831
	c-3.519,0.001-7.037,0-10.555,0.001c-1.309,0.001-1.789,0.483-1.79,1.794c-0.001,2.89-0.001,5.781,0,8.671
	c0,1.367,0.472,1.83,1.858,1.83c3.501,0,7.003-0.001,10.505,0c1.305,0,1.791,0.487,1.792,1.799c0.001,3.518-0.001,7.036,0,10.554
	c0,1.315,0.477,1.798,1.784,1.8c2.89,0.003,5.781,0.001,8.671,0.001c1.373,0,1.84-0.468,1.84-1.845c0.001-3.501,0-7.003,0-10.504
	c0.001-1.313,0.486-1.804,1.786-1.805c3.535-0.001,7.07,0.001,10.604-0.001c1.272-0.001,1.765-0.495,1.765-1.773
	c0.002-2.907,0.002-5.813,0-8.721c-0.001-1.337-0.476-1.802-1.83-1.802c-3.519,0-7.037,0.001-10.555-0.001
	c-1.275,0-1.769-0.497-1.769-1.772c-0.001-3.534,0-7.069-0.001-10.604c0-1.281-0.488-1.776-1.758-1.777
	c-2.923-0.001-5.847-0.002-8.77,0c-1.278,0.001-1.767,0.492-1.769,1.769C33.182,20.572,33.183,22.339,33.184,24.106z"/>
</svg>
