<?xml version="1.0" encoding="utf-8"?>
<!-- Generator: Adobe Illustrator 16.0.0, SVG Export Plug-In . SVG Version: 6.00 Build 0)  -->
<!DOCTYPE svg PUBLIC "-//W3C//DTD SVG 1.1//EN" "http://www.w3.org/Graphics/SVG/1.1/DTD/svg11.dtd">
<svg version="1.1" xmlns="http://www.w3.org/2000/svg" xmlns:xlink="http://www.w3.org/1999/xlink" x="0px" y="0px" width="1160px"
	 height="1920px" viewBox="0 0 1160 1920" enable-background="new 0 0 1160 1920" xml:space="preserve">
<g id="picker">
	<g>
		<title>Layer 1</title>
		<g id="svg_1_4_">
			<path id="svg_2_4_" fill="#231F20" stroke="#989898" stroke-width="37" stroke-miterlimit="10" d="M581.394,1778.986
				c-38.766-190.301-107.116-348.666-189.903-495.439c-61.406-108.873-132.544-209.363-198.363-314.939
				c-21.972-35.243-40.934-72.475-62.047-109.052c-42.216-73.137-76.444-157.936-74.27-267.933
				c2.125-107.473,33.208-193.684,78.03-264.171C208.56,211.516,332.042,116.462,497.725,91.482
				C633.19,71.058,760.2,105.564,850.268,158.23c73.601,43.038,130.596,100.527,173.92,168.28
				c45.221,70.716,76.359,154.26,78.971,263.232c1.338,55.83-7.805,107.532-20.684,150.418
				c-13.034,43.409-33.996,79.695-52.646,118.454c-36.406,75.659-82.05,144.982-127.855,214.345
				C765.537,1279.564,637.478,1490.27,581.394,1778.986z"/>
		</g>
	</g>
</g>
<g id="llama">
	<path fill="#FFFFFF" d="M788.432,505.333c27-57-28.946-69.813-28.946-69.813c65.039-92.203-6.889-186.939-23.994-188.873
		c-25.619-2.896-61,103.67-72.059,103.84c-13.065,0.201,0,0.001,0,0c-13.644-52.865-69.549-12.367-69.549-12.367
		c-44.998-35.999-73.381,4.17-73.381,4.17c-8.828,1.186,9.851,17.092,0,0c-35.312-61.272-64.793-111.157-77.012-97.923
		c-93,100.728-15.135,190.395-15.135,190.395c-71.051,8.354-35.055,72.85-35.055,72.85c-35.259,24.082-18.226,67.719,7.501,67.496
		c2.991-0.026,0.001,0,0,0c-8.035,15.89,3.855,22.701,12.965,24.225c4.178,0.699,10.839-2.943,10-2l-1.745,3.474
		c-68.531,188.51,16.469,267.51,16.469,267.51c-42.189,32.275-2.234,60.979-2.234,60.979c-39.326,34.203,2.842,59.37,2.842,59.37
		c-28.539,7.51-7.334,62,23.333,47.333l8-3.666c-2.668,22.333,41.335,37,54.667,3.666c0.702-1.756,0.702-1.756,0.702-1.756
		c3.154,7.846,10.773,24.588,31.296,24.673c18.363,0.076,22.903-8.917,26.557-19.446c3.875-11.169,0.778-4.804,0.778-4.804
		c3.53,10.565,13.995,23.505,28.017,24.18c18.648,0.897,26.648-6.847,31.983-20.847c1.914-5.022-1.691-4.815,1.457-0.115
		c4.299,6.417,3.082,14.053,19.543,19.115c7.665,2.357,12.916,1.109,16.954,0.264c26.711-5.597,16.283-31.015,20.046-28.597
		c9.336,5.999,27.333,15.333,41.228-4.489c15.062-21.488-4.229-38.178-4.229-38.178c40.333-28,4.854-59.908,4.854-59.908
		c37.479-27.425,2.999-58.497,2.999-58.497c88.497-86.995,20.037-265.132,20.037-265.132c0.729-1.422-2.696-2.395-0.555-5.129
		c1.098-1.402,7.985,4.577,15-4c8.997-11,0.018-16.725,0.018-16.725C828.432,542.333,788.432,505.333,788.432,505.333z
		 M460.3,693.104c-15.463,0-28-12.536-28-28s12.537-28,28-28c15.465,0,28,12.536,28,28S475.765,693.104,460.3,693.104z
		 M728.788,693.795c-15.464,0-28-12.536-28-28s12.536-28,28-28s28,12.536,28,28S744.252,693.795,728.788,693.795z"/>
</g>
</svg>
