<?xml version="1.0" encoding="utf-8"?>
<!-- Generator: Adobe Illustrator 16.0.0, SVG Export Plug-In . SVG Version: 6.00 Build 0)  -->
<!DOCTYPE svg PUBLIC "-//W3C//DTD SVG 1.1//EN" "http://www.w3.org/Graphics/SVG/1.1/DTD/svg11.dtd">
<svg version="1.1" id="Layer_1" xmlns="http://www.w3.org/2000/svg" xmlns:xlink="http://www.w3.org/1999/xlink" x="0px" y="0px"
	 width="162px" height="162px" viewBox="0 0 162 162" enable-background="new 0 0 162 162" xml:space="preserve">
<path fill-rule="evenodd" clip-rule="evenodd" fill="#9B9B9B" d="M93.5,157.438c-2.349-6.027-5.33-11.721-3.516-18.797
	c0.919-3.583-0.401-7.745-0.744-11.642c-0.215-2.455-0.295-4.946-0.797-7.347c-0.598-2.86-1.58-5.641-3.169-8.237
	c-5.687,11.866-2.291,22.816,3.039,33.303c-9.954,4.374-13.122-0.315-12.668-9.023c0.202-3.873-0.589-7.837-1.274-11.698
	c-0.289-1.622-0.5-4.215-3.731-2.915c-0.315,0.127-2.32-2.821-2.822-4.551c-0.724-2.493-0.788-5.177-1.135-7.779
	c-0.591-0.184-1.183-0.367-1.773-0.551c-2.483,5.764-6.286,11.353-7.075,17.34c-0.779,5.912,1.489,12.227,2.404,18.258
	c-0.375,0.367-0.604,0.787-0.838,0.79c-3.021,0.035-8.332,0.797-8.654-0.141c-1.125-3.275-0.727-7.154-0.525-10.783
	c0.164-2.938,1.831-6.081,1.172-8.719c-1.989-7.968,0.449-15.184,2.166-22.708c1.226-5.369,1.224-11.034,1.581-16.579
	c0.181-2.806-0.384-5.679-0.043-8.452c1.251-10.18,10.707-15.741,20.384-12.3c2.756,0.979,5.673,1.506,9.125,2.398
	c-0.518-1.146-0.742-1.534-0.873-1.951c-0.826-2.634-1.631-5.274-2.443-7.912c3.086-0.438,6.365-1.749,9.215-1.118
	c4.747,1.051,8.63,2.449,12.188-2.756c2.789-4.082,13.396-2.408,15.627,2.453c2.265,4.937,5.266,5.709,9.973,4.134
	c5.766-1.929,9.639-0.861,10.329,2.41c0.734,3.477-3.841,8.435-8.641,8.741c-3.263,0.208-6.581-0.445-11.127-0.815
	c0,7.052,0.062,14.045-0.021,21.036c-0.058,4.942-0.17,9.892-0.506,14.821c-0.551,8.077-2.007,16.166-1.723,24.202
	c0.187,5.27,2.783,10.449,4.264,15.681c0.75,2.648,1.419,5.32,2.027,7.616c-0.716,0.627-0.822,0.802-0.95,0.82
	c-9.491,1.402-11.95-0.906-12.635-10.635c-0.377-5.355-1.935-10.619-2.541-15.972c-0.407-3.592-0.077-7.268-0.077-11.159
	c-2.744-0.439-5.23-0.839-8.812-1.413c3.828,5.889,1.291,10.979,0.736,16.324c-0.554,5.313,1.625,10.924,2.687,16.388
	c0.47,2.418,1.142,4.797,1.763,7.366c-1.75,0.717-3.157,1.294-4.564,1.871C96.834,157.438,95.166,157.438,93.5,157.438z"/>
<g>
	<path fill="#9B9B9B" d="M28.885,16.21c2.842-1.831,6.335-2.746,10.479-2.746c5.444,0,9.966,1.301,13.568,3.902
		c3.601,2.602,5.402,6.456,5.402,11.562c0,3.132-0.781,5.77-2.342,7.913c-0.913,1.301-2.667,2.963-5.261,4.986l-2.558,1.987
		c-1.394,1.084-2.319,2.349-2.775,3.794c-0.289,0.916-0.445,2.337-0.469,4.264h-9.792c0.144-4.071,0.528-6.883,1.153-8.437
		s2.233-3.342,4.827-5.366l2.63-2.06c0.864-0.65,1.561-1.361,2.089-2.132c0.96-1.325,1.441-2.782,1.441-4.372
		c0-1.831-0.535-3.499-1.604-5.004c-1.069-1.505-3.022-2.258-5.857-2.258c-2.788,0-4.765,0.928-5.93,2.782
		c-1.166,1.855-1.748,3.782-1.748,5.781H21.694C21.983,23.942,24.38,19.077,28.885,16.21z M34.883,56.823h10.804v10.442H34.883
		V56.823z"/>
</g>
</svg>
