<?xml version="1.0" encoding="utf-8"?>
<!-- Generator: Adobe Illustrator 16.0.0, SVG Export Plug-In . SVG Version: 6.00 Build 0)  -->
<!DOCTYPE svg PUBLIC "-//W3C//DTD SVG 1.1//EN" "http://www.w3.org/Graphics/SVG/1.1/DTD/svg11.dtd">
<svg version="1.1" xmlns="http://www.w3.org/2000/svg" xmlns:xlink="http://www.w3.org/1999/xlink" x="0px" y="0px" width="1160px"
	 height="1920px" viewBox="0 0 1160 1920" enable-background="new 0 0 1160 1920" xml:space="preserve">
<g id="picker">
	<g>
		<title>Layer 1</title>
		<g id="svg_1_4_">
			<path id="svg_2_4_" fill="#C02126" stroke="#989898" stroke-width="37" stroke-miterlimit="10" d="M581.394,1778.986
				c-38.766-190.301-107.116-348.666-189.903-495.439c-61.406-108.873-132.544-209.363-198.363-314.939
				c-21.972-35.243-40.934-72.475-62.047-109.052c-42.216-73.137-76.444-157.936-74.27-267.933
				c2.125-107.473,33.208-193.684,78.03-264.171C208.56,211.516,332.042,116.462,497.725,91.482
				C633.19,71.058,760.2,105.564,850.268,158.23c73.601,43.038,130.596,100.527,173.92,168.28
				c45.221,70.716,76.359,154.26,78.971,263.232c1.338,55.83-7.805,107.532-20.684,150.418
				c-13.034,43.409-33.996,79.695-52.646,118.454c-36.406,75.659-82.05,144.982-127.855,214.345
				C765.537,1279.564,637.478,1490.27,581.394,1778.986z"/>
		</g>
	</g>
</g>
<g id="llama">
</g>
</svg>
