<?xml version="1.0" encoding="utf-8"?>
<!-- Generator: Adobe Illustrator 16.0.0, SVG Export Plug-In . SVG Version: 6.00 Build 0)  -->
<!DOCTYPE svg PUBLIC "-//W3C//DTD SVG 1.1//EN" "http://www.w3.org/Graphics/SVG/1.1/DTD/svg11.dtd">
<svg version="1.1" xmlns="http://www.w3.org/2000/svg" xmlns:xlink="http://www.w3.org/1999/xlink" x="0px" y="0px" width="1160px"
	 height="1920px" viewBox="0 0 1160 1920" enable-background="new 0 0 1160 1920" xml:space="preserve">
<g id="picker">
	<g>
		<title>Layer 1</title>
		<g id="svg_1_5_">
			<path id="svg_2_5_" fill="#231F20" stroke="#989898" stroke-width="37" stroke-miterlimit="10" d="M580.74,1767.716
				c-38.766-190.301-107.116-348.665-189.903-495.439c-61.406-108.872-132.544-209.363-198.363-314.938
				c-21.972-35.244-40.934-72.477-62.047-109.054c-42.216-73.137-76.444-157.936-74.27-267.933
				c2.125-107.473,33.208-193.684,78.03-264.171c73.719-115.935,197.201-210.989,362.884-235.969
				c135.466-20.424,262.476,14.082,352.543,66.748c73.601,43.038,130.596,100.527,173.92,168.28
				c45.221,70.716,76.359,154.26,78.971,263.232c1.338,55.83-7.805,107.532-20.684,150.418
				c-13.034,43.409-33.996,79.695-52.646,118.454c-36.406,75.659-82.05,144.982-127.855,214.347
				C764.884,1268.295,636.824,1478.999,580.74,1767.716z"/>
		</g>
	</g>
</g>
<g id="sheep_1_">
	<path id="sheep" fill-rule="evenodd" clip-rule="evenodd" fill="#FFFFFF" d="M728.221,379.152
		c47.123-18.5,72.262,2.609,71.832,60.024c47.793,14.614,85.892,44.362,116.027,83.85c11.303,14.815,19.888,32.358,26.617,49.846
		c8.498,22.072,3.176,43.18-13.921,59.889c-16.947,16.569-38.069,16.443-58.907,10.382C835,633,809.61,618.453,790.471,607.118
		c6,40.964,5.229,44.892,3.15,92.946C785,765,764.826,818.471,729.897,859.116C654.847,946.45,531.425,953,447.583,874.061
		C392.717,822.399,368.938,765.274,361,691c-2.782-26.016,0-49,6-86.964c-15.46,10.429-40,25.964-65.164,34.357
		c-25.806,8.607-49.94,14.462-72.209-5.813c-19.173-17.453-23.4-44.053-9.169-73.416c28.613-59.049,75.632-97.904,137.335-120.093
		c-4.686-62.813,33.529-76.192,72.898-60.957c12.245-70.387,36.946-87.791,96.617-68.089c35.207-41.59,68.655-41.542,101.837,0.148
		C695.4,292.324,716.217,306.637,728.221,379.152z M434.051,612.726c-15.464,0-28,12.536-28,28s12.536,28,28,28s28-12.536,28-28
		S449.515,612.726,434.051,612.726z M717,615.726c-15.464,0-28,12.536-28,28s12.536,28,28,28s28-12.536,28-28
		S732.464,615.726,717,615.726z"/>
</g>
</svg>
