<?xml version="1.0" encoding="utf-8"?>
<!-- Generator: Adobe Illustrator 16.0.0, SVG Export Plug-In . SVG Version: 6.00 Build 0)  -->
<!DOCTYPE svg PUBLIC "-//W3C//DTD SVG 1.1//EN" "http://www.w3.org/Graphics/SVG/1.1/DTD/svg11.dtd">
<svg version="1.1" id="Layer_1" xmlns="http://www.w3.org/2000/svg" xmlns:xlink="http://www.w3.org/1999/xlink" x="0px" y="0px"
	 width="1216px" height="2012px" viewBox="0 0 1216 2012" enable-background="new 0 0 1216 2012" xml:space="preserve">
<g>
	<title>Layer 1</title>
	<g id="svg_1_2_">
		<path id="svg_2_2_" fill="#EEE822" stroke="#302F2F" stroke-width="37" stroke-miterlimit="10" d="M604.685,1851.717
			c-38.766-190.301-107.116-348.666-189.903-495.439c-61.406-108.873-132.544-209.363-198.363-314.939
			c-21.972-35.244-40.934-72.476-62.047-109.053c-42.216-73.137-76.444-157.936-74.27-267.933
			c2.125-107.473,33.208-193.684,78.03-264.171c73.719-115.935,197.201-210.989,362.884-235.969
			c135.466-20.424,262.476,14.082,352.543,66.748c73.601,43.038,130.596,100.527,173.92,168.28
			c45.221,70.716,76.359,154.26,78.971,263.232c1.338,55.83-7.805,107.532-20.684,150.418
			c-13.034,43.409-33.996,79.695-52.646,118.454c-36.406,75.659-82.05,144.983-127.855,214.346
			C788.828,1352.295,660.769,1563,604.685,1851.717z"/>
		<circle id="svg_4_2_" display="none" fill="#010101" stroke="#989898" cx="603.291" cy="663.134" r="183.332"/>
	</g>
</g>
<path display="none" fill-rule="evenodd" clip-rule="evenodd" fill="#1B1B1B" d="M200.657,595.349
	c-4.675-7.608-9.785-14.973-12.018-23.588c-2.229-8.596,1.956-15.231,8.334-20.718c6.817-5.864,15.059-8.949,23.381-11.647
	c19.64-6.362,39.861-8.961,60.478-7.995c13.197,0.618,26.186,2.723,39.12,5.519c10.907,2.357,20.546,6.632,28.387,14.604
	c6.051,6.151,11.832,12.565,17.944,18.65c10.932,10.883,22.495,12.034,35.566,20.34c1.384,0.881,2.804,1.712,4.244,2.5
	c3.409,1.864,7.258,1.52,9.602-1.496c4.306-5.541,8.805-11.518,7.271-23.234C414.037,560.564,411.488,556.31,401,541
	c-8-13-28-49.333-19.213-94.649c0.776-3.62,2.088-7.161,3.508-10.59c0.505-1.215,2.051-2.742,3.145-2.761
	c1.096-0.02,2.736,1.449,3.241,2.644C393.775,440.58,405,453,420.334,479c6.473,10.975,14.67,18.73,27.333,29.333
	c10.106,7.853,21.505,14.65,21.505,14.65c10.896-1.192,18.86-0.557,29.553-2.96c13.354-3,26.509-6.885,39.717-10.511
	c8.247-2.265,16.375-4.979,24.659-7.099c15.63-3.998,31.266-8.629,47.672-6.557c7.704,0.973,15.384,2.555,22.891,4.549
	c18.437,4.895,36.73,10.322,55.15,15.271c10.057,2.703,20.205,5.128,30.412,7.191c6.553,1.324,13.262,0.149,19.938,0.469
	c5.365,0.257,9.591-0.361,14.725-1.954c10.01-4.938,21.71-23.519,29.777-35.05c7.523-8.113,13.634-16.927,19.306-28.999
	c6.034-12.84,8.101-12.795,13.684-25.853c0.87-2.042,2.583-4.769,4.344-5.147c2.841-0.612,3.739,2.689,4.266,4.907
	c1.739,7.349,4.368,19.842,5.045,27.317c1.239,13.648,0.479,27.633-0.644,39.777c-1.309,14.158-3.012,26.549-10.667,38.667
	c-9.091,14.387-24.147,27.195-29.117,29.467c-2.513,0.95-4.541,0.583-6.955,4.368c-2.959,4.646-0.616,10.445,1.405,14.833
	c1.817,3.945,10.036,11.963,15.248,8.823c16.815-10.138,31.043-16.346,44.722-30.218c4.824-4.892,9.268-10.175,14.257-14.889
	c6.661-6.293,14.786-9.976,23.704-12.005c19.17-4.36,38.529-7.037,58.221-5.943c20.213,1.121,39.916,4.923,58.217,13.888
	c4.879,2.388,9.479,6.04,13.131,10.084c6.113,6.77,5.785,14.64,1.871,22.686c-11.438,23.503-27.799,43.102-47.248,60.314
	c-14.939,13.222-31.083,24.792-48.234,34.924c-10.117,5.976-21.305,9.052-32.782,11.323c-17.593,3.48-35.284,5.081-53.135,2.9
	c-5.273-0.644-10.407-1.769-15.585,0.175c-1.637,0.613-7.08,19.893-8.114,26.896c-1.638,11.086-3.325,22.166-5.085,33.233
	c-1.641,10.305-22.678,217.938-23.033,234.238c-0.405,18.783-42.601,60.752-50.02,60.828c-21.934,0.226-40.373,8.225-56.049,23.498
	c-10.049,9.79-123.439,17.568-142.373,1.831c-5.773-4.801-41.318-24.866-54.613-25.121c-11.51-0.223-50.058-51.044-48.929-71.534
	c0.785-14.324-20.626-207.79-22.372-218.501c-2.258-13.876-4.586-27.742-6.871-41.614c-1.043-6.319-0.742-19.181-7.389-22.241
	c-5.645-2.601-11.359-2.934-17.639-2.078c-8.453,1.154-17.111,1.312-25.664,1.145c-14.568-0.285-28.865-3.013-42.883-6.778
	c-10.088-2.709-19.205-7.807-27.986-13.491c-21.662-14.021-41.905-29.742-59.098-49.113L200.657,595.349z"/>
<ellipse display="none" fill="#EEE822" cx="471" cy="760.583" rx="18" ry="17.195"/>
<ellipse display="none" fill="#EEE822" cx="743" cy="760.583" rx="18" ry="17.195"/>
<g>
	<path fill="#302F2F" d="M522.291,405.578v-39.797h162v39.797l-42.219,504.828H565.65L522.291,405.578z M528.291,1005.781h151v156
		h-151V1005.781z"/>
</g>
</svg>
