<?xml version="1.0" encoding="utf-8"?>
<!-- Generator: Adobe Illustrator 16.0.0, SVG Export Plug-In . SVG Version: 6.00 Build 0)  -->
<!DOCTYPE svg PUBLIC "-//W3C//DTD SVG 1.1//EN" "http://www.w3.org/Graphics/SVG/1.1/DTD/svg11.dtd">
<svg version="1.1"
	 id="svg5565" xmlns:dc="http://purl.org/dc/elements/1.1/" xmlns:sodipodi="http://sodipodi.sourceforge.net/DTD/sodipodi-0.dtd" xmlns:inkscape="http://www.inkscape.org/namespaces/inkscape" xmlns:ns1="http://sozi.baierouge.fr" xmlns:cc="http://creativecommons.org/ns#" xmlns:svg="http://www.w3.org/2000/svg" xmlns:rdf="http://www.w3.org/1999/02/22-rdf-syntax-ns#"
	 xmlns="http://www.w3.org/2000/svg" xmlns:xlink="http://www.w3.org/1999/xlink" x="0px" y="0px" width="162px" height="162px"
	 viewBox="557.5 319.959 162 162" enable-background="new 557.5 319.959 162 162" xml:space="preserve">
<g id="layer1" transform="translate(-245.49 -532.84)">
	<path id="path4352" fill="#9B9B9B" d="M878.188,854.391c-43.259,2.926-76.061,40.491-73.135,83.747
		c2.922,43.259,40.487,76.076,83.746,73.15s76.072-40.503,73.146-83.762C959.02,884.272,921.447,851.466,878.188,854.391
		L878.188,854.391z M878.967,865.899c37.039-2.504,68.967,25.368,71.474,62.409c2.246,33.206-19.935,62.308-51.24,69.779
		c0.135-0.517,0.242-1.062,0.336-1.624c0.827-2.851,1.329-7.102,1.024-7.463c-0.834-0.99,3.36-11.335,5.356-13.212
		c2.644-2.484,3.888-8.062,3.143-14.06c-0.553-4.453-0.265-6.769,1.645-13.262c1.479-5.026,2.994-8.609,4.203-9.941
		c1.042-1.146,3.011-4.332,4.364-7.074c2.593-5.258,7.661-10.95,10.811-12.135c3.155-1.187,6.042-6.018,5.743-9.624
		c-0.352-4.25-1.555-6.018-3.488-5.111c-1.122,0.526-1.884,0.329-2.942-0.776c-1.251-1.306-1.473-1.245-1.796,0.507
		c-0.203,1.101-0.936,2.058-1.628,2.109c-0.978,0.073-0.917-0.698,0.287-3.415c0.852-1.923,1.523-4.943,1.496-6.712
		c-0.046-3.132-2.788-10.348-4.084-10.73c-0.356-0.105-3.032,1.936-5.933,4.519c-7.81,6.955-20.084,15.758-22.211,15.928
		c-1.023,0.083-2.96-0.077-4.299-0.348c-2.462-0.498-6.173,1.18-14.945,6.743c-3.79,2.403-6.064,3.062-11.433,3.302
		c-4.127,0.184-7.929,1.017-9.896,2.174c-2.924,1.72-3.138,2.072-2.593,4.209c0.327,1.285,2.373,4.1,4.542,6.256l3.938,3.924
		l-2.403,3.812c-1.327,2.099-2.797,5.067-3.251,6.59c-0.455,1.522-2.222,4.273-3.934,6.118c-3.299,3.558-9.542,13.891-11.544,19.096
		c-0.496,1.29-5.567,4.644-9.072,6.334c-8.008-10.226-13.133-22.891-14.077-36.858C814.053,900.323,841.927,868.406,878.967,865.899
		L878.967,865.899z"/>
</g>
</svg>
